<?xml version="1.0" standalone="no"?>
<!DOCTYPE svg PUBLIC "-//W3C//DTD SVG 1.1//EN" "http://www.w3.org/Graphics/SVG/1.1/DTD/svg11.dtd" >
<svg xmlns="http://www.w3.org/2000/svg" xmlns:xlink="http://www.w3.org/1999/xlink" version="1.1">
<metadata>
Created by FontForge 20200314 at Wed Nov 11 11:08:24 2015
 By Unknown
Copyright (c) 2014 by Typesketchbook. All rights reserved.
</metadata>
<defs>
<font id="NoyhRW01-SemiLight" horiz-adv-x="213" >
  <font-face 
    font-family="NoyhRW01-SemiLight"
    font-weight="300"
    font-stretch="normal"
    units-per-em="1000"
    panose-1="2 0 0 0 0 0 0 0 0 0"
    ascent="800"
    descent="-200"
    x-height="400"
    cap-height="568"
    bbox="-59 -202 1158 831"
    underline-thickness="50"
    underline-position="-125"
    unicode-range="U+0020-2122"
  />
<missing-glyph horiz-adv-x="569" 
d="M30 0v628h509v-628h-509zM76 35q0 9 -8 11h8v-11zM493 590q0 -8 8 -8h-8v8zM501 46q-8 -2 -8 -9v9h8zM68 582q6 0 8 8v-8h-8zM76 46h417v536h-417v-536z" />
    <glyph glyph-name=".notdef" horiz-adv-x="569" 
d="M30 0v628h509v-628h-509zM76 35q0 9 -8 11h8v-11zM493 590q0 -8 8 -8h-8v8zM501 46q-8 -2 -8 -9v9h8zM68 582q6 0 8 8v-8h-8zM76 46h417v536h-417v-536z" />
    <glyph glyph-name=".null" horiz-adv-x="0" 
 />
    <glyph glyph-name="nonmarkingreturn" horiz-adv-x="333" 
 />
    <glyph glyph-name="space" unicode=" " horiz-adv-x="199" 
 />
    <glyph glyph-name="exclam" unicode="!" horiz-adv-x="228" 
d="M135 152q0 -10 -6.5 -16t-17.5 -6q-22 0 -22 22l-9 383q0 14 9 23.5t23 9.5t23.5 -9.5t9.5 -23.5zM75 34q0 17 11 28t28 11t28 -11t11 -28t-11 -28t-28 -11t-28 11t-11 28z" />
    <glyph glyph-name="quotedbl" unicode="&#x22;" horiz-adv-x="352" 
d="M134 438q0 -11 -8 -19t-19 -8t-18.5 8t-7.5 19l-6 98q0 14 9.5 23t22.5 9t23 -9t10 -23zM271 438q0 -11 -8 -19t-19 -8t-18.5 8t-7.5 19l-6 98q0 14 9.5 23t22.5 9t23 -9t10 -23z" />
    <glyph glyph-name="numbersign" unicode="#" horiz-adv-x="785" 
d="M533 352h-218l-55 -152h218zM523 137l-43 -115q-3 -9 -11.5 -15.5t-19.5 -6.5q-12 0 -21 9t-9 21q0 4 0.5 9t2.5 8l33 90h-217l-43 -115q-3 -9 -11.5 -15.5t-19.5 -6.5q-12 0 -21 9t-9 21q0 4 0.5 9t2.5 8l33 90h-64q-14 0 -22.5 8.5t-8.5 22.5t8.5 23t22.5 9h87l55 152
h-85q-14 0 -22.5 8.5t-8.5 22.5t8.5 23t22.5 9h108l47 131q3 9 11.5 15.5t19.5 6.5q12 0 21 -9t9 -21q0 -4 -0.5 -9t-2.5 -8l-38 -106h218l47 131q3 9 11.5 15.5t19.5 6.5q12 0 21 -9t9 -21q0 -4 -0.5 -9t-2.5 -8l-38 -106h56q14 0 22.5 -8.5t8.5 -22.5t-8.5 -23t-22.5 -9
h-79l-55 -152h77q14 0 22.5 -8.5t8.5 -22.5t-8.5 -23t-22.5 -9h-99z" />
    <glyph glyph-name="dollar" unicode="$" horiz-adv-x="539" 
d="M238 -1q-33 2 -66.5 10t-65.5 23q-17 7 -17 25q0 11 8 19.5t19 8.5q4 0 10 -2q26 -10 63 -18.5t84 -8.5q25 0 48 5.5t41 16t28.5 26.5t10.5 37q0 32 -24 52t-60.5 35.5t-78.5 30.5t-78.5 35.5t-60.5 51t-24 78.5q0 69 41 107.5t122 44.5v52q0 14 8.5 23t22.5 9t23 -9
t9 -23v-53q26 -2 51 -7.5t45 -10.5q18 -7 18 -27q0 -12 -8.5 -20t-20.5 -8q-2 0 -3 0.5t-3 0.5q-25 5 -56 8t-54 3q-50 0 -76.5 -11.5t-39 -26.5t-14.5 -30.5t-2 -22.5q0 -33 24 -53t60.5 -35.5t78.5 -30t78.5 -35t60.5 -51.5t24 -79q0 -32 -15 -57t-38.5 -43t-52.5 -28
t-57 -13v-51q0 -14 -9 -23t-23 -9t-22.5 9t-8.5 23v52z" />
    <glyph glyph-name="percent" unicode="%" horiz-adv-x="902" 
d="M215 568q28 0 52.5 -11t43.5 -29.5t30 -44t11 -53.5q0 -29 -11 -54t-30 -44t-43.5 -30t-52.5 -11q-29 0 -54.5 11t-44.5 30t-30 44t-11 54q0 28 11 53.5t30 44t44.5 29.5t54.5 11zM214 342q30 0 53.5 25t23.5 63t-23.5 59.5t-53.5 21.5q-33 0 -57 -20.5t-24 -60.5
q0 -38 24 -63t57 -25zM690 272q28 0 52.5 -11t43.5 -29.5t30 -44t11 -53.5q0 -29 -11 -54t-30 -44t-43.5 -30t-52.5 -11q-29 0 -54.5 11t-44.5 30t-30 44t-11 54q0 28 11 53.5t30 44t44.5 29.5t54.5 11zM689 46q30 0 53.5 25t23.5 63t-23.5 59.5t-53.5 21.5q-33 0 -57 -20.5
t-24 -60.5q0 -38 24 -63t57 -25zM561 551q8 17 28 17q13 0 22 -9t9 -22q0 -7 -4 -15l-274 -505q-9 -17 -28 -17q-13 0 -22 9t-9 22q0 7 4 15z" />
    <glyph glyph-name="ampersand" unicode="&#x26;" horiz-adv-x="642" 
d="M251 277q-29 -6 -50 -20.5t-35 -32.5t-21 -37t-7 -32q0 -36 10.5 -56t28 -30t40.5 -12.5t48 -2.5q13 0 30.5 4.5t36.5 13.5t36.5 22t29.5 29zM440 85q-29 -30 -56.5 -48t-51 -27t-41 -12t-25.5 -3q-85 0 -138 39.5t-53 117.5q0 21 7.5 45t23 47.5t40 44.5t58.5 35
q-39 41 -48 67.5t-9 41.5q0 28 10.5 54t33.5 45.5t59 31t87 11.5q35 0 60 -5.5t43 -13.5q8 -3 13 -11t5 -16q0 -11 -8.5 -19t-19.5 -8q-5 0 -7 1q-35 9 -83 9q-42 0 -67.5 -7.5t-39.5 -19t-18.5 -25.5t-4.5 -27q0 -14 16 -36t39 -46l174 -185l82 85q4 4 9.5 7.5t10.5 3.5
q11 0 18.5 -7.5t7.5 -18.5q0 -10 -6 -16l-83 -94l74 -80q7 -7 7 -18q0 -12 -8 -20t-20 -8q-11 0 -19 8z" />
    <glyph glyph-name="quotesingle" unicode="'" horiz-adv-x="215" 
d="M134 438q0 -11 -8 -19t-19 -8t-18.5 8t-7.5 19l-6 98q0 14 9.5 23t22.5 9t23 -9t10 -23z" />
    <glyph glyph-name="parenleft" unicode="(" horiz-adv-x="309" 
d="M75 259q1 117 30 227.5t74 214.5q8 17 26 17q12 0 20.5 -8.5t8.5 -20.5q0 -5 -2 -11q-44 -103 -69 -207.5t-25 -210.5t25 -210.5t69 -207.5q2 -6 2 -11q0 -12 -8.5 -20.5t-20.5 -8.5q-18 0 -26 17q-45 105 -74.5 219t-29.5 221z" />
    <glyph glyph-name="parenright" unicode=")" horiz-adv-x="309" 
d="M234 259q0 -107 -29.5 -221t-74.5 -219q-9 -17 -26 -17q-12 0 -20.5 8.5t-8.5 20.5q0 5 2 11q44 103 69 207.5t25 210.5t-25 210.5t-69 207.5q-2 6 -2 11q0 12 8.5 20.5t20.5 8.5q17 0 26 -17q45 -104 74 -214.5t30 -227.5z" />
    <glyph glyph-name="asterisk" unicode="*" horiz-adv-x="506" 
d="M191 234q-8 -15 -27 -15q-12 0 -20.5 8.5t-8.5 20.5q0 11 6 19l65 96l-114 47q-17 8 -17 26q0 13 8.5 21.5t20.5 8.5q7 0 13 -3l112 -55l-7 129q0 14 8.5 22.5t22.5 8.5t22.5 -8.5t8.5 -22.5l-7 -129l112 55q6 3 13 3q12 0 20.5 -8.5t8.5 -21.5q0 -18 -17 -26l-114 -47
l65 -96q6 -8 6 -19q0 -12 -8.5 -20.5t-20.5 -8.5q-19 0 -27 15l-62 106z" />
    <glyph glyph-name="plus" unicode="+" horiz-adv-x="441" 
d="M189 172h-83q-14 0 -22.5 8.5t-8.5 22.5t8.5 23t22.5 9h83v90q0 14 8.5 23t22.5 9t23 -9t9 -23v-90h83q14 0 22.5 -9t8.5 -23t-8.5 -22.5t-22.5 -8.5h-83v-87q0 -14 -9 -23t-23 -9t-22.5 9t-8.5 23v87z" />
    <glyph glyph-name="comma" unicode="," horiz-adv-x="229" 
d="M99 -2q-11 6 -17.5 15.5t-6.5 19.5q0 17 11.5 28.5t27.5 11.5q17 0 28.5 -11.5t11.5 -28.5q0 -3 -1.5 -8t-2.5 -6l-38 -79q-4 -9 -8.5 -10.5t-10.5 -1.5q-5 0 -9.5 2t-4.5 7v1q0 1 0.5 1t0.5 1z" />
    <glyph glyph-name="hyphen" unicode="-" horiz-adv-x="441" 
d="M106 155q-14 0 -22.5 8.5t-8.5 22.5t8.5 23t22.5 9h229q14 0 22.5 -9t8.5 -23t-8.5 -22.5t-22.5 -8.5h-229z" />
    <glyph glyph-name="period" unicode="." horiz-adv-x="228" 
d="M75 34q0 17 11 28t28 11t28 -11t11 -28t-11 -28t-28 -11t-28 11t-11 28z" />
    <glyph glyph-name="slash" unicode="/" horiz-adv-x="487" 
d="M354 650q8 18 28 18q13 0 21.5 -8.5t8.5 -22.5q0 -5 -2 -11l-277 -734q-7 -18 -28 -18q-13 0 -21.5 8.5t-8.5 22.5q0 5 2 11z" />
    <glyph glyph-name="zero" unicode="0" horiz-adv-x="592" 
d="M296 576q60 0 106 -23t77 -62t47 -92t16 -113t-16 -113t-47 -92t-77 -62t-106 -23t-106 23t-77 62t-47 92t-16 113t16 113t47 92t77 62t106 23zM296 55q47 0 81.5 18t57 49t33.5 73t11 89t-11 89t-33.5 73t-57 49t-81.5 18t-81.5 -18t-57 -49t-33.5 -73t-11 -89t11 -89
t33.5 -73t57 -49t81.5 -18z" />
    <glyph glyph-name="one" unicode="1" horiz-adv-x="367" 
d="M56 457q28 9 58.5 22.5t59.5 28.5t55.5 30.5t47.5 27.5l4 2q11 0 11 -11v-525q0 -14 -9 -23t-23 -9t-22.5 9t-8.5 23v435q-38 -24 -79.5 -41t-76.5 -25q-3 -1 -9 -1q-12 0 -20.5 8.5t-8.5 20.5q0 11 6 18t15 10z" />
    <glyph glyph-name="two" unicode="2" horiz-adv-x="502" 
d="M97 0q-13 0 -21.5 7.5t-10.5 19.5v4q2 36 25 68.5t57.5 63t73.5 60t73 60.5t56.5 64.5t23.5 72.5q0 7 -2.5 22.5t-16 31t-42.5 27t-83 11.5q-24 0 -55.5 -7t-57.5 -16q-6 -2 -11 -2q-13 0 -22 9t-9 22q0 20 18 28q26 11 63 20t77 9q104 0 154 -39t50 -114q0 -41 -14 -74
t-37.5 -61t-54 -53t-62.5 -51t-63 -55t-57 -65h256q14 0 23 -9t9 -23t-9 -22.5t-23 -8.5h-308z" />
    <glyph glyph-name="three" unicode="3" horiz-adv-x="484" 
d="M99 80q26 -11 57.5 -18.5t60.5 -7.5q42 0 69.5 7t44 22t23.5 38.5t7 56.5q0 31 -11.5 52t-30.5 33t-42.5 17.5t-48.5 7.5q-17 0 -17 16q0 2 4 10l89 191h-223q-14 0 -22.5 8.5t-8.5 22.5t8.5 23t22.5 9h303q5 0 8.5 -4.5t3.5 -10.5q0 -4 -1 -7l-100 -210q35 -9 59.5 -26
t40 -38t22.5 -45t7 -48q0 -92 -50 -138t-160 -46q-30 0 -70 10t-70 26q-14 9 -14 24q0 12 8 20t19 8q6 0 12 -3z" />
    <glyph glyph-name="four" unicode="4" horiz-adv-x="520" 
d="M351 522l-226 -323h226v323zM414 136v-104q0 -14 -9 -23t-23 -9t-22.5 9t-8.5 23v104h-262q-14 0 -24 10.5t-10 24.5v30q0 3 4 11t9 16l226 322q10 18 34 18h47q16 0 27.5 -11.5t11.5 -27.5v-330h40q13 0 22 -9t9 -23q0 -12 -9 -21.5t-22 -9.5h-40z" />
    <glyph glyph-name="five" unicode="5" horiz-adv-x="480" 
d="M78 69q-6 7 -6 17q0 13 8.5 22t20.5 9q9 0 16.5 -5t11.5 -13l3 -4q26 -29 59 -35t66 -6q27 0 50 4.5t40 17t26.5 34t9.5 55.5t-10.5 57t-28 36.5t-41 19.5t-49.5 6q-24 0 -42.5 -2t-33.5 -12q-9 -4 -22 -8t-21 -4q-13 0 -25.5 2t-22.5 8t-16 16t-6 26v226q0 14 8.5 23
t22.5 9h283q14 0 22.5 -9t8.5 -23t-8.5 -22.5t-22.5 -8.5h-251v-191q41 25 72.5 29t54.5 4q39 0 74 -12.5t61 -35.5t41 -57t15 -76t-14 -73.5t-39 -53.5t-60 -33t-77 -11q-57 0 -103.5 18t-74.5 56z" />
    <glyph glyph-name="six" unicode="6" horiz-adv-x="527" 
d="M264 309q-27 0 -53.5 -7t-47 -22t-33 -38.5t-12.5 -56.5t12.5 -58t32.5 -41t46.5 -24t53.5 -8q28 0 54.5 8t46.5 24t32.5 41t12.5 58t-12 56.5t-32.5 38.5t-46.5 22t-54 7zM200 367h61q42 0 80 -12.5t67 -36t46.5 -56t17.5 -71.5q0 -48 -17 -85t-46 -61.5t-67 -37
t-80 -12.5q-41 0 -78.5 12.5t-66 37t-45.5 61.5t-17 85q0 21 9 48.5t19 45.5l146 268q10 15 27 15q13 0 22 -9t9 -22q0 -9 -5 -17z" />
    <glyph glyph-name="seven" unicode="7" horiz-adv-x="459" 
d="M343 505h-272q-14 0 -22.5 8.5t-8.5 22.5t8.5 23t22.5 9h346q5 0 8.5 -4.5t3.5 -10.5q0 -4 -1 -7l-223 -529q-9 -17 -28 -17q-13 0 -22 9t-9 22q0 5 1 8.5t3 7.5z" />
    <glyph glyph-name="eight" unicode="8" horiz-adv-x="526" 
d="M263 54q21 0 46 3.5t47 14.5t37 30.5t15 52.5q0 30 -13 50.5t-34 33t-47 17.5t-52 5t-51.5 -5t-46 -17.5t-33.5 -33t-13 -50.5q0 -33 15 -52.5t37 -30.5t47 -14.5t46 -3.5zM263 323q28 0 51 2t39.5 11.5t26 29.5t9.5 56q0 33 -14.5 51.5t-35 27t-42 10t-35.5 1.5
t-35 -1.5t-41 -10t-34.5 -27t-14.5 -51.5q0 -36 9.5 -56t26 -29.5t39.5 -11.5t51 -2zM264 -5q-41 0 -78.5 10.5t-66.5 31t-46.5 51t-17.5 69.5q0 20 2.5 38.5t10.5 35.5t24.5 32.5t45.5 29.5q-24 13 -37 30.5t-19 35t-7 34.5t-1 31q0 40 15 68.5t40.5 47t60 27t73.5 8.5
t73.5 -8.5t60 -27t40.5 -47t15 -68.5q0 -14 -1 -31t-7 -34.5t-19 -35t-37 -30.5q28 -14 45 -29.5t25 -32.5t10.5 -35.5t2.5 -38.5q0 -39 -17.5 -69.5t-46.5 -51t-66 -31t-77 -10.5z" />
    <glyph glyph-name="nine" unicode="9" horiz-adv-x="527" 
d="M263 261q27 0 53.5 7t47 22t33 38.5t12.5 56.5t-12.5 57t-32.5 39.5t-46.5 23t-53.5 7.5q-28 0 -54.5 -7.5t-46.5 -23t-32.5 -39.5t-12.5 -57t12 -56.5t32.5 -38.5t46.5 -22t54 -7zM327 201h-61q-42 0 -80 13t-67 36.5t-46.5 56.5t-17.5 72q0 48 17 85t46 61.5t67 37
t80 12.5q41 0 78.5 -12.5t66 -37t45.5 -61.5t17 -85q0 -21 -9 -48.5t-19 -45.5l-147 -270q-10 -15 -27 -15q-13 0 -22 9t-9 22q0 9 5 17z" />
    <glyph glyph-name="colon" unicode=":" horiz-adv-x="228" 
d="M75 34q0 17 11 28t28 11t28 -11t11 -28t-11 -28t-28 -11t-28 11t-11 28zM75 337q0 17 11 28t28 11t28 -11t11 -28t-11 -28t-28 -11t-28 11t-11 28z" />
    <glyph glyph-name="semicolon" unicode=";" horiz-adv-x="229" 
d="M79 334q0 14 10.5 25t25.5 11q16 0 27.5 -11t11.5 -25q0 -16 -11.5 -27t-27.5 -11q-15 0 -25.5 11t-10.5 27zM99 -2q-11 6 -17.5 15.5t-6.5 19.5q0 17 11.5 28.5t27.5 11.5q17 0 28.5 -11.5t11.5 -28.5q0 -3 -1.5 -8t-2.5 -6l-38 -79q-4 -9 -8.5 -10.5t-10.5 -1.5
q-5 0 -9.5 2t-4.5 7v1q0 1 0.5 1t0.5 1z" />
    <glyph glyph-name="less" unicode="&#x3c;" horiz-adv-x="478" 
d="M75 197q0 38 32 54l248 124q7 4 15 4q14 0 23.5 -9.5t9.5 -23.5q0 -10 -6 -17t-14 -12l-243 -119l243 -119q8 -5 14 -12t6 -17q0 -14 -9.5 -23.5t-23.5 -9.5q-8 0 -15 4l-248 124q-32 16 -32 52z" />
    <glyph glyph-name="equal" unicode="=" horiz-adv-x="375" 
d="M106 236q-14 0 -22.5 8.5t-8.5 22.5t8.5 23t22.5 9h163q14 0 22.5 -9t8.5 -23t-8.5 -22.5t-22.5 -8.5h-163zM106 80q-14 0 -22.5 8.5t-8.5 22.5t8.5 23t22.5 9h163q14 0 22.5 -9t8.5 -23t-8.5 -22.5t-22.5 -8.5h-163z" />
    <glyph glyph-name="greater" unicode="&#x3e;" horiz-adv-x="478" 
d="M403 197q0 -36 -32 -52l-248 -124q-7 -4 -15 -4q-14 0 -23.5 9.5t-9.5 23.5q0 10 6 17t14 12l243 119l-243 119q-8 5 -14 12t-6 17q0 14 9.5 23.5t23.5 9.5q8 0 15 -4l248 -124q32 -16 32 -54z" />
    <glyph glyph-name="question" unicode="?" horiz-adv-x="453" 
d="M177 34q0 17 11 28t28 11t28 -11t11 -28t-11 -28t-28 -11t-28 11t-11 28zM92 552q22 9 51.5 16t67.5 7q33 0 63 -7.5t53.5 -24t37 -42.5t13.5 -62q0 -41 -21 -73.5t-45.5 -62t-45.5 -59t-21 -64.5v-25q0 -14 -9 -22.5t-23 -8.5t-22.5 8.5t-8.5 22.5v27q0 32 10 56
t24.5 44t32 38t32 36t24.5 39t10 48q0 36 -22.5 52.5t-84.5 16.5q-23 0 -48 -3.5t-46 -9.5q-6 -2 -11 -2q-12 0 -20 8t-8 20q0 20 17 27z" />
    <glyph glyph-name="at" unicode="@" horiz-adv-x="981" 
d="M472 54q29 0 52.5 4.5t40 17t25 34.5t8.5 56q0 60 -33.5 88.5t-92.5 28.5t-88 -24.5t-29 -92.5q0 -51 28.5 -81.5t88.5 -30.5zM659 80q9 -11 22 -19q11 -8 27 -13.5t39 -5.5q17 0 34.5 3t31 17.5t22 46t8.5 88.5q0 29 -5 63.5t-19 68.5t-39 66t-64 56.5t-94 39t-130 14.5
q-74 0 -129.5 -15t-95 -39.5t-64.5 -56.5t-39.5 -66.5t-20 -69t-5.5 -63.5q0 -42 4.5 -83t19.5 -78.5t43 -70t74.5 -56t115.5 -37t165 -13.5q43 0 91.5 4.5t89.5 21.5q2 1 8 1q13 0 21.5 -8.5t8.5 -20.5q0 -10 -6 -18t-15 -11q-21 -6 -47.5 -11.5t-53 -9t-50 -5.5t-39.5 -2
q-59 0 -118.5 5t-114.5 19.5t-102.5 41.5t-82.5 71t-55 108t-20 152q0 38 8.5 80.5t28 84t51 79t78 66.5t109.5 46t145 17q81 0 143.5 -17t108 -46t76 -66.5t49 -79t26.5 -84t8 -80.5q0 -47 -8 -85t-26.5 -65t-49 -41.5t-74.5 -14.5q-29 0 -65 9t-76 44q-17 -18 -36 -27.5
t-37 -14t-34 -5t-26 -0.5q-34 0 -67 10t-58.5 31t-41 54.5t-15.5 80.5q0 80 44 127.5t125 47.5q13 0 27.5 -1t31 -5.5t35 -14t41.5 -26.5v17q0 14 8.5 23t22.5 9t23 -9t9 -23v-236z" />
    <glyph glyph-name="A" unicode="A" horiz-adv-x="580" 
d="M290 573q13 0 18 -12l244 -516q3 -6 3 -13q0 -14 -9 -23t-22 -9q-20 0 -28 17l-54 113h-304l-54 -113q-9 -17 -28 -17q-13 0 -22 9t-9 23q0 7 3 13l244 516q5 12 18 12zM168 193h244l-122 257z" />
    <glyph glyph-name="B" unicode="B" horiz-adv-x="538" 
d="M139 307h178q27 0 46 9t31.5 23.5t18.5 33t6 38.5q0 42 -28.5 68t-73.5 26h-178v-198zM316 63q43 0 73 25t30 67q0 36 -19.5 62.5t-68.5 26.5h-192v-181h177zM106 0q-14 0 -22.5 9t-8.5 23v504q0 14 8.5 23t22.5 9h209q39 0 70 -12.5t52.5 -33.5t33.5 -49.5t12 -61.5
q0 -30 -14 -64t-44 -66q34 -28 45.5 -61.5t11.5 -64.5q0 -32 -11 -60.5t-30.5 -49.5t-46.5 -33t-59 -12h-229z" />
    <glyph glyph-name="C" unicode="C" horiz-adv-x="591" 
d="M506 110q7 6 17 6q12 0 20 -8t8 -20q0 -9 -7 -18q-38 -39 -90.5 -57t-112.5 -18t-113 23t-92.5 62t-62.5 92t-23 113t23 113t62 92t92 62t113 23q47 0 92.5 -14.5t82.5 -40.5q5 -5 9 -11.5t4 -13.5q0 -12 -9 -20.5t-21 -8.5q-11 0 -18 6q-31 22 -65 31t-75 9
q-47 0 -88.5 -18t-72.5 -49t-48.5 -73t-17.5 -89t17.5 -89t48.5 -73t72.5 -49t88.5 -18q34 0 79.5 11.5t86.5 44.5z" />
    <glyph glyph-name="D" unicode="D" horiz-adv-x="578" 
d="M252 63q50 0 92 14.5t72 42.5t47 68t17 91t-17 92.5t-47 71t-72 46t-92 16.5h-114v-442h114zM106 0q-14 0 -22.5 9t-8.5 23v504q0 14 8.5 23t22.5 9h164q60 0 110 -22t86.5 -61t56.5 -91t20 -112t-20 -111.5t-56.5 -89.5t-86.5 -59.5t-110 -21.5h-164z" />
    <glyph glyph-name="E" unicode="E" horiz-adv-x="514" 
d="M359 307q13 0 22.5 -8.5t9.5 -22.5t-9.5 -23t-22.5 -9h-221v-181h284q13 0 22.5 -9t9.5 -23t-9.5 -22.5t-22.5 -8.5h-316q-14 0 -22.5 9t-8.5 23v504q0 14 8.5 23t22.5 9h316q13 0 22.5 -8.5t9.5 -22.5t-9.5 -23t-22.5 -9h-283v-198h220z" />
    <glyph glyph-name="F" unicode="F" horiz-adv-x="474" 
d="M138 32q0 -14 -9 -23t-23 -9t-22.5 9t-8.5 23v504q0 14 8.5 23t22.5 9h316q13 0 22.5 -8.5t9.5 -22.5t-9.5 -23t-22.5 -9h-283v-198h220q13 0 22.5 -8.5t9.5 -22.5t-9.5 -23t-22.5 -9h-221v-212z" />
    <glyph glyph-name="G" unicode="G" horiz-adv-x="640" 
d="M340 54q32 0 76 10.5t84 40.5v119h-100q-14 0 -22.5 8.5t-8.5 22.5t8.5 23t22.5 9h139q14 0 22.5 -9t8.5 -23v-241q0 -14 -14 -14q-4 0 -8 3.5t-5 5.5l-26 38q-36 -27 -80.5 -39.5t-95.5 -12.5q-60 0 -113 23t-92.5 62t-62.5 92t-23 113t23 113t62 92t92 62t113 23
q47 0 92.5 -14.5t82.5 -40.5q5 -5 9 -11.5t4 -13.5q0 -12 -9 -20.5t-21 -8.5q-11 0 -18 6q-31 22 -65 31t-75 9q-47 0 -88.5 -18t-72.5 -49t-48.5 -73t-17.5 -89t17.5 -89t48.5 -73t72.5 -49t88.5 -18z" />
    <glyph glyph-name="H" unicode="H" horiz-adv-x="584" 
d="M446 243h-308v-211q0 -14 -9 -23t-23 -9t-22.5 9t-8.5 23v504q0 14 8.5 23t22.5 9t23 -9t9 -23v-230h308v230q0 14 8.5 23t22.5 9t23 -9t9 -23v-504q0 -14 -9 -23t-23 -9t-22.5 9t-8.5 23v211z" />
    <glyph glyph-name="I" unicode="I" 
d="M75 536q0 14 8.5 23t22.5 9t23 -9t9 -23v-504q0 -14 -9 -23t-23 -9t-22.5 9t-8.5 23v504z" />
    <glyph glyph-name="J" unicode="J" horiz-adv-x="448" 
d="M66 83q23 -14 49 -21.5t60 -7.5q43 0 71.5 9t44.5 33t22.5 67t6.5 111v262q0 14 8.5 23t22.5 9t23 -9t9 -23v-268q0 -79 -10.5 -131.5t-35 -84t-64 -44.5t-96.5 -13q-40 0 -76.5 10t-65.5 28q-14 9 -14 24q0 13 9 22t20 9q8 0 16 -5z" />
    <glyph glyph-name="K" unicode="K" horiz-adv-x="571" 
d="M440 557q9 11 23 11q13 0 22.5 -9.5t9.5 -22.5q0 -10 -7 -19l-148 -151l204 -323q2 -8 2 -12q0 -14 -9.5 -22.5t-23.5 -8.5q-13 0 -23 10l-197 312l-155 -158v-132q0 -14 -9 -23t-23 -9t-22.5 9t-8.5 23v504q0 14 8.5 23t22.5 9t23 -9t9 -23v-280z" />
    <glyph glyph-name="L" unicode="L" horiz-adv-x="503" 
d="M422 63q13 0 22.5 -9t9.5 -23t-9.5 -22.5t-22.5 -8.5h-316q-14 0 -22.5 9t-8.5 23v504q0 14 8.5 23t22.5 9t23 -9t9 -23v-473h284z" />
    <glyph glyph-name="M" unicode="M" horiz-adv-x="690" 
d="M344 174q-11 0 -20 9l-186 221v-372q0 -14 -9 -23t-23 -9t-22.5 9t-8.5 23v529q2 7 10 7q4 0 7 -2.5t5 -4.5l232 -283l8 -8t8 -3t8 3l8 8l232 283q2 2 5 4.5t7 2.5q8 0 10 -7v-529q0 -14 -8.5 -23t-22.5 -9t-23 9t-9 23v372l-186 -221q-4 -4 -9 -6.5t-13 -2.5z" />
    <glyph glyph-name="N" unicode="N" horiz-adv-x="633" 
d="M495 274v262q0 14 8.5 23t22.5 9t23 -9t9 -23v-504q0 -14 -9 -23t-23 -9t-22.5 9t-8.5 23v169l-357 276v-445q0 -14 -9 -23t-23 -9t-22.5 9t-8.5 23v496q0 17 11.5 28.5t27.5 11.5q5 0 12.5 -2t12.5 -7z" />
    <glyph glyph-name="O" unicode="O" horiz-adv-x="680" 
d="M340 575q60 0 113 -23t92 -62t62 -92t23 -113t-23 -113t-62 -92t-92 -62t-113 -23t-113 23t-92 62t-62 92t-23 113t23 113t62 92t92 62t113 23zM340 54q47 0 88.5 18t72 49t48.5 73t18 89t-18 89t-48.5 73t-72 49t-88.5 18t-88.5 -18t-72.5 -49t-48.5 -73t-17.5 -89
t17.5 -89t48.5 -73t72.5 -49t88.5 -18z" />
    <glyph glyph-name="P" unicode="P" horiz-adv-x="515" 
d="M322 271q44 0 74.5 27t30.5 90q0 32 -8.5 54t-22.5 36t-33 20.5t-41 6.5h-184v-234h184zM75 536q0 14 8.5 23t22.5 9h228q32 0 60.5 -13t49.5 -36.5t33.5 -56.5t12.5 -73q0 -41 -12.5 -73.5t-33.5 -55.5t-49.5 -35.5t-60.5 -12.5h-196v-180q0 -14 -9 -23t-23 -9t-22.5 9
t-8.5 23v504z" />
    <glyph glyph-name="Q" unicode="Q" horiz-adv-x="680" 
d="M425 -79q9 0 15.5 -6.5t6.5 -15.5q0 -6 -4 -12t-10 -8q-8 -2 -16 -2.5t-16 -0.5q-20 0 -37 4.5t-29 18t-19 37t-7 61.5q-55 6 -102 30.5t-82 63t-55 88.5t-20 106q0 60 23 113t62 92t92 62t113 23t113 -23t92 -62t62 -92t23 -113q0 -57 -20.5 -107t-56 -89t-83.5 -63.5
t-103 -29.5q-1 -8 -1 -15v-9q0 -8 1.5 -17t6.5 -17t14 -13t23 -5q3 0 7.5 0.5t6.5 0.5zM113 283q0 -47 17.5 -89t48.5 -73t72.5 -49t88.5 -18t88.5 18t72 49t48.5 73t18 89t-18 89t-48.5 73t-72 49t-88.5 18t-88.5 -18t-72.5 -49t-48.5 -73t-17.5 -89z" />
    <glyph glyph-name="R" unicode="R" horiz-adv-x="535" 
d="M464 50q2 -4 3 -7.5t1 -8.5q0 -14 -10 -24t-24 -10q-20 0 -30 18l-98 194h-168v-180q0 -14 -9 -23t-23 -9t-22.5 9t-8.5 23v504q0 14 8.5 23t22.5 9h228q32 0 60.5 -13t49.5 -36.5t33.5 -56.5t12.5 -73q0 -67 -31.5 -111.5t-80.5 -59.5zM138 271h184q44 0 74.5 27
t30.5 90q0 32 -8.5 54t-22.5 36t-33 20.5t-41 6.5h-184v-234z" />
    <glyph glyph-name="S" unicode="S" horiz-adv-x="496" 
d="M382 555q18 -7 18 -27q0 -12 -8.5 -20t-20.5 -8q-2 0 -3 0.5t-3 0.5q-25 5 -56 8t-54 3q-50 0 -76.5 -11.5t-39 -26.5t-14.5 -30.5t-2 -22.5q0 -33 24 -53t60.5 -35.5t78.5 -30t78.5 -35t60.5 -51.5t24 -79q0 -35 -17.5 -61.5t-44.5 -44.5t-59 -27t-61 -9
q-42 0 -87.5 7.5t-88.5 27.5q-17 7 -17 25q0 11 8 19.5t19 8.5q4 0 10 -2q26 -10 63 -18.5t84 -8.5q25 0 48 5.5t41 16t28.5 26.5t10.5 37q0 32 -24 52t-60.5 35.5t-78.5 30.5t-78.5 35.5t-60.5 51t-24 78.5q0 75 48 114t142 39q35 0 70 -6t62 -14z" />
    <glyph glyph-name="T" unicode="T" horiz-adv-x="483" 
d="M273 32q0 -14 -9 -23t-23 -9t-22.5 9t-8.5 23v473h-144q-14 0 -22.5 8.5t-8.5 22.5t8.5 23t22.5 9h351q14 0 22.5 -9t8.5 -23t-8.5 -22.5t-22.5 -8.5h-144v-473z" />
    <glyph glyph-name="U" unicode="U" horiz-adv-x="626" 
d="M312 -5q-117 0 -177 63t-60 181v297q0 14 8.5 23t22.5 9t23 -9t9 -23v-276q0 -104 39.5 -155t135.5 -51t135.5 51t39.5 155v276q0 14 9 23t23 9t22.5 -9t8.5 -23v-297q0 -118 -60.5 -181t-178.5 -63z" />
    <glyph glyph-name="V" unicode="V" horiz-adv-x="580" 
d="M290 -5q-13 0 -18 12l-244 516q-3 6 -3 13q0 14 9 23t22 9q19 0 28 -17l206 -433l206 433q8 17 28 17q13 0 22 -9t9 -23q0 -7 -3 -13l-244 -516q-5 -12 -18 -12z" />
    <glyph glyph-name="W" unicode="W" horiz-adv-x="770" 
d="M385 356q-3 0 -4.5 -1.5l-4.5 -4.5l-148 -343q-5 -12 -18 -12t-18 12l-165 518q-2 6 -2 10q0 14 9 23.5t23 9.5q11 0 19 -5.5t11 -15.5l132 -399l149 357q2 4 6.5 7.5t10.5 3.5t10.5 -3.5t6.5 -7.5l149 -357l132 399q3 10 11 15.5t19 5.5q14 0 23 -9.5t9 -23.5
q0 -4 -2 -10l-165 -518q-5 -12 -18 -12t-18 12l-148 343l-4.5 4.5t-4.5 1.5z" />
    <glyph glyph-name="X" unicode="X" horiz-adv-x="514" 
d="M257 233l-175 -219q-5 -6 -11.5 -10t-14.5 -4q-13 0 -22 9.5t-9 22.5q0 10 6 18l188 235l-186 233q-6 7 -6 18q0 13 9 22.5t22 9.5q15 0 26 -14l173 -215l173 215q10 14 26 14q13 0 22 -9.5t9 -22.5q0 -11 -6 -18l-186 -233l188 -235q6 -8 6 -18q0 -13 -9 -22.5t-22 -9.5
q-16 0 -26 14z" />
    <glyph glyph-name="Y" unicode="Y" horiz-adv-x="536" 
d="M300 32q0 -14 -9 -23t-23 -9t-22.5 9t-8.5 23v187l-207 301q-5 8 -5 17q0 14 8.5 22.5t22.5 8.5q17 0 26 -14l186 -271l186 271q9 14 26 14q14 0 22.5 -8.5t8.5 -22.5q0 -9 -5 -17l-206 -300v-188z" />
    <glyph glyph-name="Z" unicode="Z" horiz-adv-x="475" 
d="M48 0q-5 0 -8.5 4.5t-3.5 10.5q0 4 1 7l302 483h-273q-14 0 -22.5 8.5t-8.5 22.5t8.5 23t22.5 9h362q5 0 8.5 -4.5t3.5 -10.5q0 -4 -1 -7l-302 -483h272q14 0 22.5 -9t8.5 -23t-8.5 -22.5t-22.5 -8.5h-361z" />
    <glyph glyph-name="bracketleft" unicode="[" horiz-adv-x="335" 
d="M75 687q0 14 8.5 23t22.5 9h122q13 0 22.5 -8.5t9.5 -22.5t-9.5 -23t-22.5 -9h-90v-764h90q13 0 22.5 -9t9.5 -23t-9.5 -22.5t-22.5 -8.5h-122q-14 0 -22.5 9t-8.5 23v826z" />
    <glyph glyph-name="backslash" unicode="\" horiz-adv-x="487" 
d="M410 -84q2 -6 2 -11q0 -14 -8.5 -22.5t-21.5 -8.5q-21 0 -28 18l-277 734q-2 6 -2 11q0 14 8.5 22.5t21.5 8.5q20 0 28 -18z" />
    <glyph glyph-name="bracketright" unicode="]" horiz-adv-x="335" 
d="M260 -139q0 -14 -8.5 -23t-22.5 -9h-122q-13 0 -22.5 8.5t-9.5 22.5t9.5 23t22.5 9h90v764h-90q-13 0 -22.5 9t-9.5 23t9.5 22.5t22.5 8.5h122q14 0 22.5 -9t8.5 -23v-826z" />
    <glyph glyph-name="asciicircum" unicode="^" horiz-adv-x="382" 
d="M191 568q25 0 40 -15t27 -37l48 -88q1 -1 1 -4q0 -12 -9.5 -18.5t-20.5 -6.5q-8 0 -15 4t-11 11l-60 112l-60 -112q-4 -7 -11 -11t-15 -4q-11 0 -20.5 6.5t-9.5 18.5q0 3 1 4l48 88q12 22 27 37t40 15z" />
    <glyph glyph-name="underscore" unicode="_" horiz-adv-x="441" 
d="M106 -68q-14 0 -22.5 8.5t-8.5 22.5t8.5 23t22.5 9h229q14 0 22.5 -9t8.5 -23t-8.5 -22.5t-22.5 -8.5h-229z" />
    <glyph glyph-name="grave" unicode="`" horiz-adv-x="258" 
d="M78 524q-3 4 -3 11q0 14 8 23.5t22 9.5q16 0 24.5 -6.5t13.5 -18.5l37 -86q1 -2 2 -5t1 -5q0 -11 -8.5 -18.5t-19.5 -7.5q-15 0 -26 19z" />
    <glyph glyph-name="a" unicode="a" horiz-adv-x="521" 
d="M241 54q28 0 54 10t45.5 29t31 46t11.5 62q0 34 -12 60t-31.5 44t-45 27.5t-53.5 9.5q-29 0 -54.5 -9.5t-44 -27.5t-29 -44.5t-10.5 -59.5q0 -40 10.5 -68t29 -45.5t44 -25.5t54.5 -8zM390 372q0 12 8 20t20 8t20 -8t8 -20v-344q0 -12 -8 -20t-20 -8t-19 8t-9 20l-3 27
q-23 -21 -43.5 -33t-40 -18t-37.5 -7.5t-34 -1.5q-48 0 -84 16.5t-60 44.5t-36 65.5t-12 80.5q0 45 14.5 82t40.5 64t61.5 42t77.5 15q7 0 23.5 -1.5t37.5 -7.5t45 -19t47 -35z" />
    <glyph glyph-name="b" unicode="b" horiz-adv-x="521" 
d="M280 54q29 0 54.5 8t44 25.5t29 45.5t10.5 68q0 33 -10.5 59.5t-29 44.5t-44 27.5t-54.5 9.5q-28 0 -53.5 -9.5t-45 -27.5t-31.5 -44t-12 -60q0 -35 11.5 -62t31 -46t45 -29t54.5 -10zM75 536q0 14 8.5 23t22.5 9t23 -9t9 -23v-192q23 22 46.5 34.5t44 18.5t36 7t22.5 1
q42 0 77.5 -15t61.5 -42t40.5 -64t14.5 -82q0 -43 -12 -80.5t-36 -65.5t-60 -44.5t-84 -16.5q-17 0 -34.5 1.5t-37 7.5t-40.5 18t-43 33l-3 -27q-2 -12 -9 -20t-19 -8t-20 8t-8 20v508z" />
    <glyph glyph-name="c" unicode="c" horiz-adv-x="407" 
d="M328 66q6 3 13 3q11 0 19.5 -8.5t8.5 -19.5q0 -15 -13 -23q-25 -12 -54 -17.5t-57 -5.5q-42 0 -79.5 16.5t-65 44t-44 65t-16.5 79.5t16.5 79.5t44 65t65 44t79.5 16.5q65 0 114 -32q13 -8 13 -23q0 -11 -8.5 -19.5t-19.5 -8.5q-7 0 -13 3q-20 10 -44 13.5t-42 3.5
q-30 0 -55.5 -11.5t-45 -31t-30.5 -45.5t-11 -56t11 -56t30.5 -45.5t45 -31t55.5 -11.5q20 0 42 3t41 9z" />
    <glyph glyph-name="d" unicode="d" horiz-adv-x="521" 
d="M241 54q28 0 54 10t45.5 29t31 46t11.5 62q0 34 -12 60t-31.5 44t-45 27.5t-53.5 9.5q-29 0 -54.5 -9.5t-44 -27.5t-29 -44.5t-10.5 -59.5q0 -40 10.5 -68t29 -45.5t44 -25.5t54.5 -8zM446 28q0 -12 -8 -20t-20 -8t-19 8t-9 20l-3 27q-23 -21 -43.5 -33t-40 -18
t-37.5 -7.5t-34 -1.5q-48 0 -84 16.5t-60 44.5t-36 65.5t-12 80.5q0 45 14.5 82t40.5 64t61.5 42t77.5 15q7 0 22.5 -1t36 -7t44 -18.5t46.5 -34.5v192q0 14 9 23t23 9t22.5 -9t8.5 -23v-508z" />
    <glyph glyph-name="e" unicode="e" horiz-adv-x="462" 
d="M357 226q0 33 -11.5 55.5t-30 36t-41.5 19t-46 5.5t-45 -6t-39.5 -19.5t-28 -35.5t-10.5 -55h252zM105 168q0 -37 15.5 -59.5t38 -34.5t47 -16t43.5 -4q18 0 46 5t51 14q6 2 11 2q12 0 20.5 -8.5t8.5 -20.5q0 -17 -12 -24q-27 -14 -61 -20.5t-63 -6.5q-44 0 -82 12
t-66.5 37.5t-45 64t-16.5 91.5q0 42 11 79t34 65t59 44.5t87 16.5t87 -16.5t59 -44.5t34 -65t11 -79q0 -12 -8.5 -22t-20.5 -10h-288z" />
    <glyph glyph-name="f" unicode="f" horiz-adv-x="342" 
d="M298 561q-5 0 -11 0.5t-15 0.5q-27 0 -43.5 -7t-26 -24t-13 -45t-3.5 -70v-11h95q13 0 22.5 -9t9.5 -23t-9.5 -22.5t-22.5 -8.5h-95v-310q0 -14 -9 -23t-23 -9t-22.5 9t-8.5 23v310h-66q-13 0 -22.5 8.5t-9.5 22.5t9.5 23t22.5 9h66v11q0 59 8.5 99t25 64.5t40.5 35
t55 10.5q8 0 24 -1.5t34 -7.5q17 -9 17 -26q0 -13 -8.5 -21t-20.5 -8z" />
    <glyph glyph-name="g" unicode="g" horiz-adv-x="521" 
d="M241 54q28 0 54 10t45.5 29t31 46t11.5 62q0 34 -12 60t-31.5 44t-45 27.5t-53.5 9.5q-29 0 -54.5 -9.5t-44 -27.5t-29 -44.5t-10.5 -59.5q0 -40 10.5 -68t29 -45.5t44 -25.5t54.5 -8zM446 -21q0 -53 -17 -87t-44 -53.5t-60.5 -27t-66.5 -7.5q-43 0 -78.5 6t-63.5 21
q-13 8 -13 23q0 12 8 20t19 8q5 0 8 -1q29 -11 58 -14.5t49 -3.5q42 0 68.5 8t42 24t21.5 39t6 52v69q-23 -21 -43 -33t-38.5 -18t-36 -7.5t-33.5 -1.5q-48 0 -84 16.5t-60 44.5t-36 65.5t-12 80.5q0 45 14.5 82t40.5 64t61.5 42t77.5 15q7 0 23.5 -1.5t37.5 -7.5t45 -19
t47 -35l3 30q0 12 8 20t20 8t20 -8t8 -20v-393z" />
    <glyph glyph-name="h" unicode="h" horiz-adv-x="510" 
d="M75 536q0 14 8.5 23t22.5 9t23 -9t9 -23v-190q19 20 37.5 32t36.5 18t34 7.5t30 1.5q49 0 81.5 -14t52 -39.5t27.5 -61t8 -79.5v-179q0 -14 -9 -23t-23 -9t-22.5 9t-8.5 23v180q0 28 -2.5 52t-14 41t-35.5 27t-66 10q-30 0 -53 -11t-39.5 -29.5t-25 -43t-8.5 -51.5v-175
q0 -14 -9 -23t-23 -9t-22.5 9t-8.5 23v504z" />
    <glyph glyph-name="i" unicode="i" 
d="M63 488q0 18 13 31t30 13q20 0 33 -13t13 -31t-13 -30.5t-33 -12.5q-17 0 -30 12.5t-13 30.5zM75 368q0 14 8.5 23t22.5 9t23 -9t9 -23v-336q0 -14 -9 -23t-23 -9t-22.5 9t-8.5 23v336z" />
    <glyph glyph-name="j" unicode="j" 
d="M63 488q0 18 13 31t30 13q20 0 33 -13t13 -31t-13 -30.5t-33 -12.5q-17 0 -30 12.5t-13 30.5zM-28 -139q8 -2 18 -3t15 -1q21 0 34.5 5.5t21.5 20.5t11 42t3 71v372q0 14 8.5 23t22.5 9t23 -9t9 -23v-386q0 -54 -8 -89t-23.5 -54.5t-38 -27t-52.5 -7.5q-8 0 -25 1.5
t-32 5.5q-8 3 -13 10t-5 15q0 11 7.5 18t18.5 7h5z" />
    <glyph glyph-name="k" unicode="k" horiz-adv-x="418" 
d="M383 52q9 -11 9 -21q0 -13 -9.5 -22t-22.5 -9q-9 0 -18 7l-204 168v-143q0 -14 -9 -23t-23 -9t-22.5 9t-8.5 23v504q0 14 8.5 23t22.5 9t23 -9t9 -23v-309l205 167q7 6 18 6q14 0 23 -9t9 -23q0 -13 -9 -22l-179 -145z" />
    <glyph glyph-name="l" unicode="l" 
d="M75 536q0 14 8.5 23t22.5 9t23 -9t9 -23v-504q0 -14 -9 -23t-23 -9t-22.5 9t-8.5 23v504z" />
    <glyph glyph-name="m" unicode="m" horiz-adv-x="707" 
d="M642 32q0 -14 -9 -23t-23 -9t-22.5 9t-8.5 23v190q0 61 -20.5 90.5t-67.5 29.5q-37 0 -66 -24.5t-34 -63.5q1 -9 1 -16.5v-16.5v-189q0 -14 -9 -23t-23 -9t-22.5 9t-8.5 23v172q0 28 -5 53t-15.5 44t-28 30t-41.5 11q-26 0 -45 -11t-31.5 -30t-18.5 -44t-6 -53v-172
q0 -14 -9 -23t-23 -9t-22.5 9t-8.5 23v340q0 12 8 20t20 8t20 -8t8 -20l3 -25q19 21 36 32.5t31.5 17.5t26.5 7t21 1q14 0 29.5 -2.5t31 -9t30.5 -19t28 -32.5q19 23 37.5 35.5t36 18.5t33 7.5t29.5 1.5q34 0 59.5 -13t43 -35.5t26.5 -52t9 -63.5v-209z" />
    <glyph glyph-name="n" unicode="n" horiz-adv-x="510" 
d="M134 342q19 22 38.5 34.5t38 19t35 8t30.5 1.5q49 0 81.5 -14t52 -39.5t27.5 -61t8 -79.5v-179q0 -14 -9 -23t-23 -9t-22.5 9t-8.5 23v180q0 28 -2.5 52t-14 41t-35.5 27t-66 10q-30 0 -53.5 -11.5t-39.5 -30.5t-24.5 -44.5t-8.5 -53.5v-170q0 -14 -9 -23t-23 -9t-22.5 9
t-8.5 23v340q0 12 8 20t20 8t20 -8t8 -20z" />
    <glyph glyph-name="o" unicode="o" horiz-adv-x="490" 
d="M245 405q42 0 79.5 -16.5t65 -44t44 -65t16.5 -79.5t-16.5 -79.5t-44 -65t-65 -44t-79.5 -16.5t-79.5 16.5t-65 44t-44 65t-16.5 79.5t16.5 79.5t44 65t65 44t79.5 16.5zM245 54q30 0 55.5 11.5t45 31t30.5 45.5t11 56t-11 56t-30.5 45.5t-45 31t-55.5 11.5t-55.5 -11.5
t-45 -31t-30.5 -45.5t-11 -56t11 -56t30.5 -45.5t45 -31t55.5 -11.5z" />
    <glyph glyph-name="p" unicode="p" horiz-adv-x="521" 
d="M138 -139q0 -14 -8.5 -23t-22.5 -9t-23 9t-9 23v511q0 12 8 20t20 8t20 -8t8 -20l3 -30q23 22 47 35t45 19t37.5 7.5t23.5 1.5q42 0 77.5 -15t61.5 -42t40.5 -64t14.5 -82q0 -43 -12 -80.5t-36 -65.5t-60 -44.5t-84 -16.5q-32 0 -69 9t-82 47v-190zM280 54q29 0 54.5 8
t44 25.5t29 45.5t10.5 68q0 33 -10.5 59.5t-29 44.5t-44 27.5t-54.5 9.5q-28 0 -53.5 -9.5t-45 -27.5t-31.5 -44t-12 -60q0 -35 11.5 -62t31 -46t45 -29t54.5 -10z" />
    <glyph glyph-name="q" unicode="q" horiz-adv-x="521" 
d="M383 51q-45 -38 -82 -47t-69 -9q-48 0 -84 16.5t-60 44.5t-36 65.5t-12 80.5q0 45 14.5 82t40.5 64t61.5 42t77.5 15q7 0 23.5 -1.5t37.5 -7.5t45 -19t47 -35l3 30q0 12 8 20t20 8t20 -8t8 -20v-511q0 -14 -9 -23t-23 -9t-22.5 9t-8.5 23v190zM241 54q28 0 54 10t45.5 29
t31 46t11.5 62q0 34 -12 60t-31.5 44t-45 27.5t-53.5 9.5q-29 0 -54.5 -9.5t-44 -27.5t-29 -44.5t-10.5 -59.5q0 -40 10.5 -68t29 -45.5t44 -25.5t54.5 -8z" />
    <glyph glyph-name="r" unicode="r" horiz-adv-x="325" 
d="M272 342q-41 0 -67 -12.5t-41 -32.5t-20.5 -45.5t-5.5 -52.5v-167q0 -14 -9 -23t-23 -9t-22.5 9t-8.5 23v340q0 12 8 20t20 8t18.5 -8.5t9.5 -19.5l7 -27q13 22 32 34t38.5 18t37 7t28.5 1h4q13 0 22.5 -9t9.5 -23t-9.5 -22.5t-22.5 -8.5h-6z" />
    <glyph glyph-name="s" unicode="s" horiz-adv-x="401" 
d="M296 395q10 -2 17 -10.5t7 -19.5t-9 -20t-21 -9q-20 3 -42.5 4.5t-41.5 1.5q-30 0 -48.5 -3.5t-28.5 -10t-13 -15t-3 -18.5q0 -16 18 -28.5t45 -24t58 -23t58 -26.5t45 -35.5t18 -48.5q0 -33 -15 -54.5t-39 -35t-53 -19t-57 -5.5q-32 0 -63 7t-60 20q-17 8 -17 25
q0 12 8.5 20.5t19.5 8.5q3 0 9 -2q22 -7 47.5 -13.5t53.5 -6.5q10 0 27.5 0.5t34.5 5t29 13t12 25.5q0 22 -18 36t-45 24.5t-58 21t-58 25t-45 37t-18 58.5q0 53 38 79t107 26q22 0 50 -2.5t51 -7.5z" />
    <glyph glyph-name="t" unicode="t" horiz-adv-x="350" 
d="M275 54q13 0 21.5 -8.5t8.5 -21.5q0 -14 -8.5 -21.5t-21.5 -7.5h-24q-30 0 -53 8t-38.5 26.5t-23.5 50t-8 79.5v183h-66q-13 0 -22.5 8.5t-9.5 22.5t9.5 23t22.5 9h66v131q0 14 8.5 23t22.5 9t23 -9t9 -23v-131h86q13 0 22.5 -9t9.5 -23t-9.5 -22.5t-22.5 -8.5h-86v-149
q0 -43 2.5 -70t10.5 -42.5t23.5 -21t41.5 -5.5h6z" />
    <glyph glyph-name="u" unicode="u" horiz-adv-x="498" 
d="M423 28q0 -12 -8 -20t-20 -8t-20 8t-8 20l-2 26q-18 -22 -36.5 -34t-36 -17.5t-33 -6.5t-25.5 -1q-49 0 -81.5 14t-52 39.5t-27.5 61t-8 79.5v179q0 14 8.5 23t22.5 9t23 -9t9 -23v-184q0 -28 3.5 -52t15.5 -41t35.5 -27t63.5 -10q30 0 52 11.5t35.5 30.5t20 44.5
t6.5 53.5v174q0 14 8.5 23t22.5 9t23 -9t9 -23v-340z" />
    <glyph glyph-name="v" unicode="v" horiz-adv-x="420" 
d="M210 -5q-13 0 -18 12l-169 350q-3 6 -3 12q0 13 9 22t22 9q9 0 17.5 -5t12.5 -13l129 -268l129 268q4 8 12.5 13t17.5 5q13 0 22 -9t9 -22q0 -6 -3 -12l-169 -350q-5 -12 -18 -12z" />
    <glyph glyph-name="w" unicode="w" horiz-adv-x="634" 
d="M317 255q-4 0 -9 -5l-122 -246q-4 -9 -13 -9q-8 0 -12 9l-129 353q-2 6 -2 11q0 14 9 23t22 9q11 0 19 -5t11 -14l90 -251l113 239q5 9 11.5 13t11.5 4t11.5 -4t11.5 -13l113 -239l90 251q3 9 11 14t19 5q13 0 22 -9t9 -23q0 -5 -2 -11l-129 -353q-4 -9 -12 -9
q-9 0 -13 9l-122 246q-5 5 -9 5z" />
    <glyph glyph-name="x" unicode="x" horiz-adv-x="408" 
d="M204 156l-112 -142q-9 -14 -27 -14q-13 0 -22.5 9t-9.5 23q0 9 5 17l121 150l-121 152q-5 8 -5 17q0 14 9 23t22 9q18 0 27 -14l113 -140l113 140q9 14 27 14q13 0 22 -9t9 -23q0 -9 -5 -17l-121 -152l121 -150q5 -8 5 -17q0 -14 -9.5 -23t-22.5 -9q-18 0 -27 14z" />
    <glyph glyph-name="y" unicode="y" horiz-adv-x="498" 
d="M360 48q-17 -20 -35 -30.5t-35 -15.5t-31.5 -6t-24.5 -1q-49 0 -81.5 14t-52 39.5t-27.5 61t-8 79.5v179q0 14 8.5 23t22.5 9t23 -9t9 -23v-184q0 -28 3.5 -52t15.5 -41t35.5 -27t63.5 -10q30 0 52 11.5t35.5 30.5t20 44.5t6.5 53.5v174q0 14 8.5 23t22.5 9t23 -9t9 -23
v-389q0 -53 -17 -87t-44 -53.5t-60.5 -27t-66.5 -7.5q-43 0 -78.5 6t-63.5 21q-13 8 -13 23q0 12 8 20t19 8q5 0 8 -1q29 -11 58 -14.5t49 -3.5q42 0 68.5 8t42 24t21.5 39t6 52v62z" />
    <glyph glyph-name="z" unicode="z" horiz-adv-x="413" 
d="M57 0q-5 0 -8.5 4.5t-3.5 10.5q0 4 1 7l216 315h-186q-14 0 -22.5 8.5t-8.5 22.5t8.5 23t22.5 9h279q5 0 8.5 -4.5t3.5 -10.5q0 -4 -1 -7l-215 -315h186q14 0 22.5 -9t8.5 -23t-8.5 -22.5t-22.5 -8.5h-280z" />
    <glyph glyph-name="braceleft" unicode="{" horiz-adv-x="423" 
d="M107 304q13 0 25 7t20 18t13 24.5t5 27.5v172q0 49 7 81t21 51t36.5 26.5t53.5 7.5h29q13 0 22 -9t9 -22t-9 -22t-22 -9h-34q-17 0 -27 -4t-15 -15.5t-6.5 -32t-1.5 -53.5v-159q0 -33 -14.5 -64t-38.5 -57q24 -26 38.5 -57.5t14.5 -64.5v-154q0 -33 1.5 -53.5t6.5 -32
t15 -15.5t27 -4h34q13 0 22 -9t9 -22t-9 -22t-22 -9h-29q-31 0 -53.5 7.5t-36.5 26.5t-21 51t-7 81v168q0 13 -5 26.5t-13 25t-20 18.5t-25 7q-14 0 -23 9t-9 23t9 23t23 9z" />
    <glyph glyph-name="bar" unicode="|" 
d="M75 682q0 14 8.5 23t22.5 9t23 -9t9 -23v-821q0 -14 -9 -23t-23 -9t-22.5 9t-8.5 23v821z" />
    <glyph glyph-name="braceright" unicode="}" horiz-adv-x="423" 
d="M316 304q14 0 23 -9t9 -23t-9 -23t-23 -9t-25.5 -7t-19.5 -18.5t-13 -25t-5 -26.5v-168q0 -49 -7 -81t-21 -51t-36.5 -26.5t-53.5 -7.5h-29q-13 0 -22 9t-9 22t9 22t22 9h34q17 0 27 4t15 15.5t6.5 32t1.5 53.5v154q0 33 14.5 64.5t38.5 57.5q-24 26 -38.5 57t-14.5 64
v159q0 33 -1.5 53.5t-6.5 32t-15 15.5t-27 4h-34q-13 0 -22 9t-9 22t9 22t22 9h29q31 0 53.5 -7.5t36.5 -26.5t21 -51t7 -81v-172q0 -14 5 -27.5t13 -24.5t19.5 -18t25.5 -7z" />
    <glyph glyph-name="asciitilde" unicode="~" horiz-adv-x="445" 
d="M278 135q-16 0 -30 5.5t-27.5 11.5t-26.5 11.5t-27 5.5q-26 0 -49 -13q-8 -5 -16 -5q-11 0 -19 8t-8 19q0 14 10 22q19 14 39 23t43 9q25 0 38.5 -5.5t24 -11.5t20.5 -11.5t28 -5.5q26 0 49 13q8 5 16 5q11 0 19 -8t8 -19q0 -14 -10 -22q-19 -14 -39 -23t-43 -9z" />
    <glyph glyph-name="uni00A0" unicode="&#xa0;" horiz-adv-x="199" 
 />
    <glyph glyph-name="exclamdown" unicode="&#xa1;" horiz-adv-x="228" 
d="M145 28q0 -14 -9.5 -23.5t-23.5 -9.5t-23 9.5t-9 23.5l9 383q0 22 22 22q11 0 17.5 -6t6.5 -16zM75 529q0 17 11 28t28 11t28 -11t11 -28t-11 -28t-28 -11t-28 11t-11 28z" />
    <glyph glyph-name="cent" unicode="&#xa2;" horiz-adv-x="651" 
d="M311 0q-51 10 -94 35.5t-74.5 63.5t-49.5 85.5t-18 100.5t18 100.5t49.5 85t74.5 63.5t94 36v56q0 14 8.5 23t22.5 9t23 -9t9 -23v-51q45 -2 88 -16t78 -39q5 -5 9 -11.5t4 -13.5q0 -12 -9 -20.5t-21 -8.5q-11 0 -18 6q-31 22 -65 31t-75 9q-47 0 -88.5 -18t-72.5 -49
t-48.5 -73t-17.5 -89t17.5 -89t48.5 -73t72.5 -49t88.5 -18q34 0 79.5 11.5t86.5 44.5q7 6 17 6q12 0 20 -8t8 -20q0 -9 -7 -18q-38 -38 -87.5 -55.5t-107.5 -19.5v-50q0 -14 -9 -23t-23 -9t-22.5 9t-8.5 23v55z" />
    <glyph glyph-name="sterling" unicode="&#xa3;" horiz-adv-x="604" 
d="M478 550q15 -8 15 -25q0 -12 -8.5 -20t-19.5 -8q-4 0 -10 2q-29 11 -56.5 14t-47.5 3q-42 0 -68.5 -8.5t-42 -24t-21.5 -38.5t-6 -52v-100h123q13 0 22.5 -9t9.5 -23t-9.5 -22.5t-22.5 -8.5h-123v-167h284q13 0 22.5 -9t9.5 -23t-9.5 -22.5t-22.5 -8.5h-379
q-14 0 -24.5 9.5t-10.5 24.5q0 12 6.5 20.5t16.5 12.5q17 7 29.5 22t14.5 34v107h-43q-13 0 -22.5 8.5t-9.5 22.5t9.5 23t22.5 9h43v107q0 53 17 87t44 53.5t60.5 27t66.5 7.5q42 0 77 -5.5t63 -19.5z" />
    <glyph glyph-name="currency" unicode="&#xa4;" horiz-adv-x="468" 
d="M234 129q19 0 36.5 7.5t31 20.5t21.5 30.5t8 37.5t-8 37.5t-21.5 30.5t-31 20.5t-36.5 7.5t-36.5 -7.5t-31 -20.5t-21.5 -30.5t-8 -37.5t8 -37.5t21.5 -30.5t31 -20.5t36.5 -7.5zM234 82q-51 0 -89 32l-33 -29q-8 -6 -15 -6q-9 0 -15.5 6.5t-6.5 15.5t7 16l33 30
q-23 34 -23 77q0 47 28 84l-38 34q-7 7 -7 16t6.5 15.5t15.5 6.5q7 0 15 -6l39 -35q38 27 83 27t83 -27l39 35q8 6 15 6q9 0 15.5 -6.5t6.5 -15.5t-7 -16l-38 -34q28 -37 28 -84q0 -43 -23 -77l33 -30q7 -7 7 -16t-6.5 -15.5t-15.5 -6.5q-7 0 -15 6l-33 29
q-18 -15 -40.5 -23.5t-48.5 -8.5z" />
    <glyph glyph-name="yen" unicode="&#xa5;" horiz-adv-x="636" 
d="M350 89v-57q0 -14 -9 -23t-23 -9t-22.5 9t-8.5 23v57h-99q-14 0 -22.5 8.5t-8.5 22.5t8.5 23t22.5 9h99v68h-99q-14 0 -22.5 8.5t-8.5 22.5t8.5 23t22.5 9h55l-163 237q-5 8 -5 17q0 14 8.5 22.5t22.5 8.5q17 0 26 -14l186 -271l186 271q9 14 26 14q14 0 22.5 -8.5
t8.5 -22.5q0 -9 -5 -17l-163 -237h55q14 0 22.5 -9t8.5 -23t-8.5 -22.5t-22.5 -8.5h-98v-68h98q14 0 22.5 -9t8.5 -23t-8.5 -22.5t-22.5 -8.5h-98z" />
    <glyph glyph-name="brokenbar" unicode="&#xa6;" 
d="M75 682q0 14 8.5 23t22.5 9t23 -9t9 -23v-239q0 -14 -9 -23t-23 -9t-22.5 9t-8.5 23v239zM75 100q0 14 8.5 23t22.5 9t23 -9t9 -23v-239q0 -14 -9 -23t-23 -9t-22.5 9t-8.5 23v239z" />
    <glyph glyph-name="section" unicode="&#xa7;" horiz-adv-x="592" 
d="M138 261q0 -21 28 -36t66 -28q25 -8 55 -17.5t64 -9.5q10 0 27.5 0.5t34.5 5t29 13t12 25.5q0 24 -26 41.5t-61.5 29.5t-73.5 17.5t-62 5.5q-30 0 -48.5 -3.5t-28.5 -10t-13 -15t-3 -18.5zM368 458q-30 0 -48.5 -3.5t-28.5 -10t-13 -15t-3 -18.5q0 -16 18 -28.5t45 -24
t58 -23t58 -26.5t45 -35.5t18 -48.5q0 -30 -13 -51t-34 -34.5t-47 -20.5t-53 -8q10 -18 10 -36q0 -33 -15 -54.5t-39 -35t-53 -19t-57 -5.5q-32 0 -63 7t-60 20q-17 8 -17 25q0 12 8.5 20.5t19.5 8.5q3 0 9 -2q22 -7 47.5 -13.5t53.5 -6.5q10 0 27.5 0.5t34.5 5t29 13
t12 25.5q0 23 -18 36.5t-45 24t-58 21t-58 25t-45 37t-18 58.5q0 53 38.5 79t108.5 26q-10 17 -10 45q0 53 38 79t107 26q22 0 50 -2.5t51 -7.5q10 -2 17 -10.5t7 -19.5t-9 -20t-21 -9q-20 3 -42.5 4.5t-41.5 1.5z" />
    <glyph glyph-name="dieresis" unicode="&#xa8;" horiz-adv-x="375" 
d="M75 529q0 17 11 28t28 11t28 -11t11 -28t-11 -28t-28 -11t-28 11t-11 28zM222 529q0 17 11 28t28 11t28 -11t11 -28t-11 -28t-28 -11t-28 11t-11 28z" />
    <glyph glyph-name="copyright" unicode="&#xa9;" horiz-adv-x="723" 
d="M361 568q60 0 112 -22.5t91 -61.5t61.5 -91t22.5 -112q0 -59 -22.5 -111t-61.5 -91t-91 -61.5t-112 -22.5q-59 0 -111 22.5t-91 61.5t-61.5 91t-22.5 111q0 60 22.5 112t61.5 91t91 61.5t111 22.5zM361 35q49 0 94 20.5t79.5 54.5t55 79t20.5 93q0 49 -20.5 94t-55 79.5
t-79.5 55t-94 20.5q-48 0 -93 -20.5t-79 -55t-54.5 -79.5t-20.5 -94q0 -48 20.5 -93t54.5 -79t79 -54.5t93 -20.5zM462 135q-21 -12 -47 -18.5t-50 -6.5q-35 0 -65 13.5t-52.5 36.5t-35 54.5t-12.5 66.5q0 34 12.5 64.5t35 53t52.5 36t65 13.5q54 0 97 -29q5 -4 9 -9.5
t4 -11.5q0 -10 -7.5 -17.5t-17.5 -7.5q-9 0 -18 6q-16 8 -35 11.5t-32 3.5q-21 0 -41 -8.5t-35 -23.5t-24.5 -36t-9.5 -46t9 -47.5t24.5 -39t35 -26t40.5 -9.5q23 0 40 3.5t34 10.5q4 3 12 3q22 0 22 -22q0 -11 -10 -18z" />
    <glyph glyph-name="ordfeminine" unicode="&#xaa;" horiz-adv-x="400" 
d="M202 314q2 0 11 0.5t20 2.5t22 5t16 9v56q-5 8 -24.5 13.5t-42.5 5.5q-14 0 -27.5 -1.5t-24 -6.5t-17 -14.5t-6.5 -24.5q0 -14 7 -23t17.5 -14t23.5 -6.5t25 -1.5zM278 294q-10 -11 -23.5 -17.5t-26.5 -9.5t-23.5 -3.5t-13.5 -0.5q-12 0 -31.5 3.5t-38.5 14t-32.5 30.5
t-13.5 52q0 49 29 71.5t76 22.5q10 0 23 -1t26 -3t24.5 -5t17.5 -7q0 15 -4 28.5t-14 24t-26 17t-40 6.5q-6 0 -25 -1t-36 -6q-6 -2 -9 -2q-10 0 -16.5 6.5t-6.5 16.5q0 19 15 24q26 10 46.5 11.5t37.5 1.5q36 0 61.5 -11t41 -30t22.5 -46t7 -58v-134q0 -10 -6.5 -16
t-16.5 -6q-19 0 -22 17z" />
    <glyph glyph-name="guillemotleft" unicode="&#xab;" horiz-adv-x="531" 
d="M82 173q-3 6 -5 12t-2 14t2 14t5 12l66 154q4 8 11 13.5t17 5.5q14 0 23 -9t9 -23q0 -6 -1 -8l-68 -159l68 -159q1 -2 1 -8q0 -14 -9 -23t-23 -9q-10 0 -17 5.5t-11 13.5zM330 173q-3 6 -5 12t-2 14t2 14t5 12l66 154q4 8 11 13.5t17 5.5q14 0 23 -9t9 -23q0 -6 -1 -8
l-68 -159l68 -159q1 -2 1 -8q0 -14 -9 -23t-23 -9q-10 0 -17 5.5t-11 13.5z" />
    <glyph glyph-name="logicalnot" unicode="&#xac;" horiz-adv-x="441" 
d="M335 225q14 0 22.5 -9t8.5 -23v-116q0 -14 -9 -23t-23 -9t-22.5 9t-8.5 23v85h-197q-14 0 -22.5 8.5t-8.5 22.5t8.5 23t22.5 9h229v0z" />
    <glyph glyph-name="uni00AD" unicode="&#xad;" horiz-adv-x="198" 
 />
    <glyph glyph-name="registered" unicode="&#xae;" horiz-adv-x="723" 
d="M361 568q60 0 112 -22.5t91 -61.5t61.5 -91t22.5 -112q0 -59 -22.5 -111t-61.5 -91t-91 -61.5t-112 -22.5q-59 0 -111 22.5t-91 61.5t-61.5 91t-22.5 111q0 60 22.5 112t61.5 91t91 61.5t111 22.5zM361 35q49 0 94 20.5t79.5 54.5t55 79t20.5 93q0 49 -20.5 94t-55 79.5
t-79.5 55t-94 20.5q-48 0 -93 -20.5t-79 -55t-54.5 -79.5t-20.5 -94q0 -48 20.5 -93t54.5 -79t79 -54.5t93 -20.5zM390 269q12 0 21.5 6t15.5 15.5t9 20.5t3 21t-3 20.5t-10 19.5t-19.5 14.5t-31.5 5.5h-79v-123h94zM377 221h-81v-76q0 -11 -8.5 -19t-19.5 -8t-19 8t-8 19
v274q0 11 8 19t19 8h94q39 0 64.5 -10t40.5 -27t21 -38.5t6 -43.5q0 -34 -17 -60t-43 -38l42 -71q4 -5 4 -14q0 -11 -8 -18.5t-19 -7.5q-16 0 -23 14z" />
    <glyph glyph-name="macron" unicode="&#xaf;" horiz-adv-x="462" 
d="M106 505q-14 0 -22.5 8.5t-8.5 22.5t8.5 23t22.5 9h250q14 0 22.5 -9t8.5 -23t-8.5 -22.5t-22.5 -8.5h-250z" />
    <glyph glyph-name="degree" unicode="&#xb0;" horiz-adv-x="420" 
d="M210 348q33 0 58 23.5t25 63.5t-25 61.5t-58 21.5t-58 -21.5t-25 -61.5t25 -63.5t58 -23.5zM210 298q-28 0 -52.5 11t-43 30t-29 44t-10.5 52t10.5 51.5t29 42.5t43 28.5t52.5 10.5t52.5 -10.5t43 -28.5t29 -42.5t10.5 -51.5t-10.5 -52t-29 -44t-43 -30t-52.5 -11z" />
    <glyph glyph-name="plusminus" unicode="&#xb1;" horiz-adv-x="441" 
d="M189 247h-83q-14 0 -22.5 8.5t-8.5 22.5t8.5 23t22.5 9h83v90q0 14 8.5 23t22.5 9t23 -9t9 -23v-90h83q14 0 22.5 -9t8.5 -23t-8.5 -22.5t-22.5 -8.5h-83v-87q0 -14 -9 -23t-23 -9t-22.5 9t-8.5 23v87zM335 63q14 0 22.5 -9t8.5 -23t-8.5 -22.5t-22.5 -8.5h-229
q-14 0 -22.5 8.5t-8.5 22.5t8.5 23t22.5 9h229z" />
    <glyph glyph-name="uni00B2" unicode="&#xb2;" horiz-adv-x="368" 
d="M101 268q-11 0 -18.5 7t-7.5 18v15q0 24 24.5 49t54 48.5t54 44t24.5 35.5q0 19 -15.5 25.5t-44.5 6.5q-13 0 -31.5 -4t-31.5 -9q-2 -1 -4.5 -1h-4.5q-10 0 -17 7t-7 17q0 8 6 15.5t13 9.5q15 6 36.5 11t41.5 5q57 0 85 -20t28 -65q0 -24 -16 -44t-39 -39t-47.5 -38.5
t-40.5 -42.5h124q11 0 18.5 -7.5t7.5 -18.5t-7.5 -18t-18.5 -7h-166z" />
    <glyph glyph-name="uni00B3" unicode="&#xb3;" horiz-adv-x="363" 
d="M114 328q13 -5 29 -9.5t30 -4.5q11 0 22 1.5t19.5 7.5t14 16.5t5.5 28.5q0 12 -6 20t-15.5 12.5t-20.5 6t-21 1.5h-4q-5 0 -9 4t-4 9q0 1 2 5l46 91h-102q-10 0 -17.5 7.5t-7.5 17.5q0 11 7.5 18.5t17.5 7.5h173q11 0 11 -11l-49 -97q15 -4 25 -14t16.5 -23t9 -27.5
t2.5 -28.5q0 -45 -28 -74.5t-88 -29.5q-17 0 -41.5 6t-41.5 17q-10 7 -10 20q0 11 6.5 17.5t17.5 6.5q5 0 11 -2z" />
    <glyph glyph-name="acute" unicode="&#xb4;" horiz-adv-x="253" 
d="M129 451q-5 -8 -12 -13.5t-16 -5.5q-11 0 -18.5 7.5t-7.5 20.5v4.5t1 4.5l35 74q6 13 13.5 19t24.5 6q14 0 21.5 -9t7.5 -22q0 -7 -3 -11z" />
    <glyph glyph-name="uni00B5" unicode="&#xb5;" horiz-adv-x="498" 
d="M65 368q0 14 8.5 23t22.5 9t23 -9t9 -23v-201q0 -25 4.5 -45.5t17.5 -35.5t36 -23.5t60 -8.5q30 0 52 11.5t35.5 30.5t20 44.5t6.5 53.5v174q0 14 8.5 23t22.5 9t23 -9t9 -23v-340q0 -12 -8 -20t-20 -8t-20 8t-8 20l-2 26q-18 -22 -36.5 -34t-36 -17.5t-33 -6.5t-25.5 -1
q-67 0 -106 27v-161q0 -14 -9 -23t-23 -9t-22.5 9t-8.5 23v507z" />
    <glyph glyph-name="paragraph" unicode="&#xb6;" horiz-adv-x="589" 
d="M255 194q-39 5 -72 21.5t-57 41.5t-37.5 56.5t-13.5 67.5q0 35 13 68.5t35.5 60t52.5 42.5t65 16h241q14 0 23 -9t9 -23v-675q0 -14 -9 -23t-23 -9t-22.5 9t-8.5 23v644h-133v-644q0 -14 -9 -23t-23 -9t-22.5 9t-8.5 23v333z" />
    <glyph glyph-name="periodcentered" unicode="&#xb7;" horiz-adv-x="248" 
d="M75 188q0 20 14 34.5t34 14.5q21 0 35.5 -14.5t14.5 -34.5t-14.5 -34.5t-35.5 -14.5q-20 0 -34 14.5t-14 34.5z" />
    <glyph glyph-name="cedilla" unicode="&#xb8;" horiz-adv-x="322" 
d="M102 -119q9 -5 29 -11t34 -6q10 0 23.5 4t13.5 18q0 15 -22 26.5t-51 26.5l8 57h41l-4 -32q32 -19 52.5 -36.5t20.5 -40.5q0 -17 -8.5 -28t-21 -17.5t-28 -9.5t-29.5 -3q-43 0 -77 21q-8 5 -8 15q0 8 5 13t13 5q3 0 9 -2z" />
    <glyph glyph-name="uni00B9" unicode="&#xb9;" horiz-adv-x="291" 
d="M216 286q0 -11 -8 -19t-19 -8t-19 8t-8 19v199q-15 -8 -32.5 -13t-31.5 -7q-9 0 -16 7t-7 15q0 9 5 15.5t13 8.5q35 11 65.5 29.5t46.5 27.5q11 0 11 -11v-271z" />
    <glyph glyph-name="ordmasculine" unicode="&#xba;" horiz-adv-x="420" 
d="M210 348q33 0 58 23.5t25 63.5t-25 61.5t-58 21.5t-58 -21.5t-25 -61.5t25 -63.5t58 -23.5zM210 298q-28 0 -52.5 11t-43 30t-29 44t-10.5 52t10.5 51.5t29 42.5t43 28.5t52.5 10.5t52.5 -10.5t43 -28.5t29 -42.5t10.5 -51.5t-10.5 -52t-29 -44t-43 -30t-52.5 -11z" />
    <glyph glyph-name="guillemotright" unicode="&#xbb;" horiz-adv-x="531" 
d="M383 19q-4 -8 -11 -13.5t-17 -5.5q-14 0 -23 9t-9 23q0 6 1 8l68 159l-68 159q-1 2 -1 8q0 14 9 23t23 9q10 0 17 -5.5t11 -13.5l66 -154q3 -6 5 -12t2 -14t-2 -14t-5 -12zM135 19q-4 -8 -11 -13.5t-17 -5.5q-14 0 -23 9t-9 23q0 6 1 8l68 159l-68 159q-1 2 -1 8
q0 14 9 23t23 9q10 0 17 -5.5t11 -13.5l66 -154q3 -6 5 -12t2 -14t-2 -14t-5 -12z" />
    <glyph glyph-name="onequarter" unicode="&#xbc;" horiz-adv-x="702" 
d="M244 16q-7 -16 -24 -16q-11 0 -19.5 8.5t-8.5 19.5q0 6 1 9q48 128 98 258t98 257q7 16 24 16q11 0 19.5 -8.5t8.5 -19.5q0 -6 -1 -9zM216 286q0 -11 -8 -19t-19 -8t-19 8t-8 19v199q-15 -8 -32.5 -13t-31.5 -7q-9 0 -16 7t-7 15q0 9 5 15.5t13 8.5q35 11 65.5 29.5
t46.5 27.5q11 0 11 -11v-271zM503 243l-80 -129h80v129zM383 63q-11 0 -18.5 7t-7.5 18v17q0 3 2.5 10t4.5 10l95 151q16 24 45 24q22 0 37.5 -15.5t15.5 -37.5v-133h7q11 0 18.5 -7.5t7.5 -18.5t-7.5 -18t-18.5 -7h-7v-36q0 -11 -8 -19t-19 -8t-19 8t-8 19v36h-120z" />
    <glyph glyph-name="onehalf" unicode="&#xbd;" horiz-adv-x="693" 
d="M244 16q-7 -16 -24 -16q-11 0 -19.5 8.5t-8.5 19.5q0 6 1 9q48 128 98 258t98 257q7 16 24 16q11 0 19.5 -8.5t8.5 -19.5q0 -6 -1 -9zM216 286q0 -11 -8 -19t-19 -8t-19 8t-8 19v199q-15 -8 -32.5 -13t-31.5 -7q-9 0 -16 7t-7 15q0 9 5 15.5t13 8.5q35 11 65.5 29.5
t46.5 27.5q11 0 11 -11v-271zM426 0q-11 0 -18.5 7t-7.5 18v15q0 24 24.5 49t54 48.5t54 44t24.5 35.5q0 19 -15.5 25.5t-44.5 6.5q-13 0 -31.5 -4t-31.5 -9q-2 -1 -4.5 -1h-4.5q-10 0 -17 7t-7 17q0 8 6 15.5t13 9.5q15 6 36.5 11t41.5 5q57 0 85 -20t28 -65q0 -24 -16 -44
t-39 -39t-47.5 -38.5t-40.5 -42.5h124q11 0 18.5 -7.5t7.5 -18.5t-7.5 -18t-18.5 -7h-166z" />
    <glyph glyph-name="threequarters" unicode="&#xbe;" horiz-adv-x="733" 
d="M571 243l-80 -129h80v129zM114 328q13 -5 29 -9.5t30 -4.5q11 0 22 1.5t19.5 7.5t14 16.5t5.5 28.5q0 12 -6 20t-15.5 12.5t-20.5 6t-21 1.5h-4q-5 0 -9 4t-4 9q0 1 2 5l46 91h-102q-10 0 -17.5 7.5t-7.5 17.5q0 11 7.5 18.5t17.5 7.5h173q11 0 11 -11l-49 -97
q15 -4 25 -14t16.5 -23t9 -27.5t2.5 -28.5q0 -45 -28 -74.5t-88 -29.5q-17 0 -41.5 6t-41.5 17q-10 7 -10 20q0 11 6.5 17.5t17.5 6.5q5 0 11 -2zM300 16q-7 -16 -24 -16q-11 0 -19.5 8.5t-8.5 19.5q0 6 1 9q48 128 98 258t98 257q7 16 24 16q11 0 19.5 -8.5t8.5 -19.5
q0 -6 -1 -9zM451 63q-11 0 -18.5 7t-7.5 18v17q0 3 2.5 10t4.5 10l95 151q16 24 45 24q22 0 37.5 -15.5t15.5 -37.5v-133h7q11 0 18.5 -7.5t7.5 -18.5t-7.5 -18t-18.5 -7h-7v-36q0 -11 -8 -19t-19 -8t-19 8t-8 19v36h-120z" />
    <glyph glyph-name="questiondown" unicode="&#xbf;" horiz-adv-x="453" 
d="M276 536q0 -17 -11 -28t-28 -11t-28 11t-11 28t11 28t28 11t28 -11t11 -28zM361 18q-22 -9 -51.5 -16t-67.5 -7q-33 0 -63 7.5t-53.5 24t-37 42.5t-13.5 62q0 41 21 73.5t45.5 62t45.5 59t21 64.5v25q0 14 9 22.5t23 8.5t22.5 -8.5t8.5 -22.5v-27q0 -32 -10 -56
t-24.5 -44t-32 -38t-32 -36t-24.5 -39t-10 -48q0 -36 22.5 -52.5t84.5 -16.5q23 0 48 3.5t46 9.5q6 2 11 2q12 0 20 -8t8 -20q0 -20 -17 -27z" />
    <glyph glyph-name="Agrave" unicode="&#xc0;" horiz-adv-x="580" 
d="M290 573q13 0 18 -12l244 -516q3 -6 3 -13q0 -14 -9 -23t-22 -9q-20 0 -28 17l-54 113h-304l-54 -113q-9 -17 -28 -17q-13 0 -22 9t-9 23q0 7 3 13l244 516q5 12 18 12zM168 193h244l-122 257zM206 733q-3 4 -3 11q0 13 7.5 22t21.5 9q17 0 24.5 -6t13.5 -19l35 -74
q1 -2 1 -4.5v-4.5q0 -13 -7.5 -20.5t-18.5 -7.5q-9 0 -16 5.5t-12 13.5z" />
    <glyph glyph-name="Aacute" unicode="&#xc1;" horiz-adv-x="580" 
d="M290 573q13 0 18 -12l244 -516q3 -6 3 -13q0 -14 -9 -23t-22 -9q-20 0 -28 17l-54 113h-304l-54 -113q-9 -17 -28 -17q-13 0 -22 9t-9 23q0 7 3 13l244 516q5 12 18 12zM168 193h244l-122 257zM329 658q-5 -8 -12 -13.5t-16 -5.5q-11 0 -18.5 7.5t-7.5 20.5v4.5t1 4.5
l35 74q6 13 13.5 19t24.5 6q14 0 21.5 -9t7.5 -22q0 -7 -3 -11z" />
    <glyph glyph-name="Acircumflex" unicode="&#xc2;" horiz-adv-x="580" 
d="M290 573q-13 0 -18 -12l-244 -516q-3 -6 -3 -13q0 -14 9 -23t22 -9q19 0 28 17l54 113h304l54 -113q8 -17 28 -17q13 0 22 9t9 23q0 7 -3 13l-244 516q-5 12 -18 12zM290 450l122 -257h-244zM301 759q3 0 6 -2t5 -4l78 -68q10 -8 10 -21q0 -10 -7 -17t-17 -7q-11 0 -19 8
l-64 60l-64 -60q-8 -8 -19 -8q-10 0 -17 7t-7 17q0 13 10 21l78 68q2 2 5 4t6 2h16z" />
    <glyph glyph-name="Atilde" unicode="&#xc3;" horiz-adv-x="580" 
d="M290 573q13 0 18 -12l244 -516q3 -6 3 -13q0 -14 -9 -23t-22 -9q-20 0 -28 17l-54 113h-304l-54 -113q-9 -17 -28 -17q-13 0 -22 9t-9 23q0 7 3 13l244 516q5 12 18 12zM168 193h244l-122 257zM349 639q-16 0 -30 5.5t-27.5 11.5t-26.5 11.5t-27 5.5q-26 0 -49 -13
q-8 -5 -16 -5q-11 0 -19 8t-8 19q0 14 10 22q19 14 39 23t43 9q25 0 38.5 -5.5t24 -11.5t20.5 -11.5t28 -5.5q26 0 49 13q8 5 16 5q11 0 19 -8t8 -19q0 -14 -10 -22q-19 -14 -39 -23t-43 -9z" />
    <glyph glyph-name="Adieresis" unicode="&#xc4;" horiz-adv-x="580" 
d="M179 678q0 17 11 28t28 11t28 -11t11 -28t-11 -28t-28 -11t-28 11t-11 28zM326 678q0 17 11 28t28 11t28 -11t11 -28t-11 -28t-28 -11t-28 11t-11 28zM290 573q13 0 18 -12l244 -516q3 -6 3 -13q0 -14 -9 -23t-22 -9q-20 0 -28 17l-54 113h-304l-54 -113q-9 -17 -28 -17
q-13 0 -22 9t-9 23q0 7 3 13l244 516q5 12 18 12zM168 193h244l-122 257z" />
    <glyph glyph-name="Aring" unicode="&#xc5;" horiz-adv-x="580" 
d="M291 831q20 0 38 -7.5t31 -21t20.5 -31t7.5 -37.5q0 -19 -7.5 -36.5t-20.5 -30.5t-31 -20.5t-38 -7.5t-37 7.5t-30 20.5t-20.5 30.5t-7.5 36.5q0 20 7.5 37.5t20.5 31t30 21t37 7.5zM293 689q16 0 28 12.5t12 32.5t-12 30.5t-28 10.5t-28.5 -10.5t-12.5 -30.5t12.5 -32.5
t28.5 -12.5zM290 573q13 0 18 -12l244 -516q3 -6 3 -13q0 -14 -9 -23t-22 -9q-20 0 -28 17l-54 113h-304l-54 -113q-9 -17 -28 -17q-13 0 -22 9t-9 23q0 7 3 13l244 516q5 12 18 12zM168 193h244l-122 257z" />
    <glyph glyph-name="AE" unicode="&#xc6;" horiz-adv-x="884" 
d="M792 63q13 0 22.5 -9t9.5 -23t-9.5 -22.5t-22.5 -8.5h-316q-14 0 -22.5 9t-8.5 23v100h-277l-92 -119q-10 -13 -26 -13q-12 0 -21 9t-9 21q0 10 6 18l374 494q23 26 54 26h338q13 0 22.5 -8.5t9.5 -22.5t-9.5 -23t-22.5 -9h-283v-198h220q13 0 22.5 -8.5t9.5 -22.5
t-9.5 -23t-22.5 -9h-221v-181h284zM445 495l-231 -300h231v300z" />
    <glyph glyph-name="Ccedilla" unicode="&#xc7;" horiz-adv-x="591" 
d="M284 -119q9 -5 29 -11t34 -6q10 0 23.5 4t13.5 18q0 15 -22 26.5t-51 26.5l8 57q-57 4 -106 28t-85 63t-57 90t-21 108q0 60 23 113t62 92t92 62t113 23q47 0 92.5 -14.5t82.5 -40.5q5 -5 9 -11.5t4 -13.5q0 -12 -9 -20.5t-21 -8.5q-11 0 -18 6q-31 22 -65 31t-75 9
q-47 0 -88.5 -18t-72.5 -49t-48.5 -73t-17.5 -89t17.5 -89t48.5 -73t72.5 -49t88.5 -18q34 0 79.5 11.5t86.5 44.5q7 6 17 6q12 0 20 -8t8 -20q0 -9 -7 -18q-35 -36 -82.5 -54t-102.5 -20l-3 -32q32 -19 52.5 -36.5t20.5 -40.5q0 -17 -8.5 -28t-21 -17.5t-28 -9.5t-29.5 -3
q-43 0 -77 21q-8 5 -8 15q0 8 5 13t13 5q3 0 9 -2z" />
    <glyph glyph-name="Egrave" unicode="&#xc8;" horiz-adv-x="514" 
d="M359 307q13 0 22.5 -8.5t9.5 -22.5t-9.5 -23t-22.5 -9h-221v-181h284q13 0 22.5 -9t9.5 -23t-9.5 -22.5t-22.5 -8.5h-316q-14 0 -22.5 9t-8.5 23v504q0 14 8.5 23t22.5 9h316q13 0 22.5 -8.5t9.5 -22.5t-9.5 -23t-22.5 -9h-283v-198h220zM179 733q-3 4 -3 11q0 13 7.5 22
t21.5 9q17 0 24.5 -6t13.5 -19l35 -74q1 -2 1 -4.5v-4.5q0 -13 -7.5 -20.5t-18.5 -7.5q-9 0 -16 5.5t-12 13.5z" />
    <glyph glyph-name="Eacute" unicode="&#xc9;" horiz-adv-x="514" 
d="M359 307q13 0 22.5 -8.5t9.5 -22.5t-9.5 -23t-22.5 -9h-221v-181h284q13 0 22.5 -9t9.5 -23t-9.5 -22.5t-22.5 -8.5h-316q-14 0 -22.5 9t-8.5 23v504q0 14 8.5 23t22.5 9h316q13 0 22.5 -8.5t9.5 -22.5t-9.5 -23t-22.5 -9h-283v-198h220zM305 658q-5 -8 -12 -13.5
t-16 -5.5q-11 0 -18.5 7.5t-7.5 20.5v4.5t1 4.5l35 74q6 13 13.5 19t24.5 6q14 0 21.5 -9t7.5 -22q0 -7 -3 -11z" />
    <glyph glyph-name="Ecircumflex" unicode="&#xca;" horiz-adv-x="514" 
d="M139 307v198h283q13 0 22.5 9t9.5 23t-9.5 22.5t-22.5 8.5h-316q-14 0 -22.5 -9t-8.5 -23v-504q0 -14 8.5 -23t22.5 -9h316q13 0 22.5 8.5t9.5 22.5t-9.5 23t-22.5 9h-284v181h221q13 0 22.5 9t9.5 23t-9.5 22.5t-22.5 8.5h-220zM273 759q3 0 6 -2t5 -4l78 -68
q10 -8 10 -21q0 -10 -7 -17t-17 -7q-11 0 -19 8l-64 60l-64 -60q-8 -8 -19 -8q-10 0 -17 7t-7 17q0 13 10 21l78 68q2 2 5 4t6 2h16z" />
    <glyph glyph-name="Edieresis" unicode="&#xcb;" horiz-adv-x="514" 
d="M148 678q0 17 11 28t28 11t28 -11t11 -28t-11 -28t-28 -11t-28 11t-11 28zM295 678q0 17 11 28t28 11t28 -11t11 -28t-11 -28t-28 -11t-28 11t-11 28zM359 307q13 0 22.5 -8.5t9.5 -22.5t-9.5 -23t-22.5 -9h-221v-181h284q13 0 22.5 -9t9.5 -23t-9.5 -22.5t-22.5 -8.5
h-316q-14 0 -22.5 9t-8.5 23v504q0 14 8.5 23t22.5 9h316q13 0 22.5 -8.5t9.5 -22.5t-9.5 -23t-22.5 -9h-283v-198h220z" />
    <glyph glyph-name="Igrave" unicode="&#xcc;" 
d="M75 536q0 14 8.5 23t22.5 9t23 -9t9 -23v-504q0 -14 -9 -23t-23 -9t-22.5 9t-8.5 23v504zM23 733q-3 4 -3 11q0 13 7.5 22t21.5 9q17 0 24.5 -6t13.5 -19l35 -74q1 -2 1 -4.5v-4.5q0 -13 -7.5 -20.5t-18.5 -7.5q-9 0 -16 5.5t-12 13.5z" />
    <glyph glyph-name="Iacute" unicode="&#xcd;" 
d="M75 536q0 14 8.5 23t22.5 9t23 -9t9 -23v-504q0 -14 -9 -23t-23 -9t-22.5 9t-8.5 23v504zM143 658q-5 -8 -12 -13.5t-16 -5.5q-11 0 -18.5 7.5t-7.5 20.5v4.5t1 4.5l35 74q6 13 13.5 19t24.5 6q14 0 21.5 -9t7.5 -22q0 -7 -3 -11z" />
    <glyph glyph-name="Icircumflex" unicode="&#xce;" 
d="M75 32q0 -14 8.5 -23t22.5 -9t23 9t9 23v504q0 14 -9 23t-23 9t-22.5 -9t-8.5 -23v-504zM115 759q3 0 6 -2t5 -4l78 -68q10 -8 10 -21q0 -10 -7 -17t-17 -7q-11 0 -19 8l-64 60l-64 -60q-8 -8 -19 -8q-10 0 -17 7t-7 17q0 13 10 21l78 68q2 2 5 4t6 2h16z" />
    <glyph glyph-name="Idieresis" unicode="&#xcf;" 
d="M15 678q0 17 11 28t28 11t28 -11t11 -28t-11 -28t-28 -11t-28 11t-11 28zM121 678q0 17 11 28t28 11t28 -11t11 -28t-11 -28t-28 -11t-28 11t-11 28zM75 536q0 14 8.5 23t22.5 9t23 -9t9 -23v-504q0 -14 -9 -23t-23 -9t-22.5 9t-8.5 23v504z" />
    <glyph glyph-name="Eth" unicode="&#xd0;" horiz-adv-x="619" 
d="M147 0q-14 0 -22.5 9t-8.5 23v214h-65q-14 0 -22.5 8.5t-8.5 22.5t8.5 23t22.5 9h65v227q0 14 8.5 23t22.5 9h164q60 0 110 -22t86.5 -61t56.5 -91t20 -112t-20 -111.5t-56.5 -89.5t-86.5 -59.5t-110 -21.5h-164zM179 246v-183h114q50 0 92 14.5t72 42.5t47 68t17 91
t-17 92.5t-47 71t-72 46t-92 16.5h-114v-196h101q14 0 22.5 -9t8.5 -23t-8.5 -22.5t-22.5 -8.5h-101z" />
    <glyph glyph-name="Ntilde" unicode="&#xd1;" horiz-adv-x="633" 
d="M495 274v262q0 14 8.5 23t22.5 9t23 -9t9 -23v-504q0 -14 -9 -23t-23 -9t-22.5 9t-8.5 23v169l-357 276v-445q0 -14 -9 -23t-23 -9t-22.5 9t-8.5 23v496q0 17 11.5 28.5t27.5 11.5q5 0 12.5 -2t12.5 -7zM355 639q-16 0 -30 5.5t-27.5 11.5t-26.5 11.5t-27 5.5
q-26 0 -49 -13q-8 -5 -16 -5q-11 0 -19 8t-8 19q0 14 10 22q19 14 39 23t43 9q25 0 38.5 -5.5t24 -11.5t20.5 -11.5t28 -5.5q26 0 49 13q8 5 16 5q11 0 19 -8t8 -19q0 -14 -10 -22q-19 -14 -39 -23t-43 -9z" />
    <glyph glyph-name="Ograve" unicode="&#xd2;" horiz-adv-x="680" 
d="M340 575q60 0 113 -23t92 -62t62 -92t23 -113t-23 -113t-62 -92t-92 -62t-113 -23t-113 23t-92 62t-62 92t-23 113t23 113t62 92t92 62t113 23zM340 54q47 0 88.5 18t72 49t48.5 73t18 89t-18 89t-48.5 73t-72 49t-88.5 18t-88.5 -18t-72.5 -49t-48.5 -73t-17.5 -89
t17.5 -89t48.5 -73t72.5 -49t88.5 -18zM251 733q-3 4 -3 11q0 13 7.5 22t21.5 9q17 0 24.5 -6t13.5 -19l35 -74q1 -2 1 -4.5v-4.5q0 -13 -7.5 -20.5t-18.5 -7.5q-9 0 -16 5.5t-12 13.5z" />
    <glyph glyph-name="Oacute" unicode="&#xd3;" horiz-adv-x="680" 
d="M340 575q60 0 113 -23t92 -62t62 -92t23 -113t-23 -113t-62 -92t-92 -62t-113 -23t-113 23t-92 62t-62 92t-23 113t23 113t62 92t92 62t113 23zM340 54q47 0 88.5 18t72 49t48.5 73t18 89t-18 89t-48.5 73t-72 49t-88.5 18t-88.5 -18t-72.5 -49t-48.5 -73t-17.5 -89
t17.5 -89t48.5 -73t72.5 -49t88.5 -18zM386 658q-5 -8 -12 -13.5t-16 -5.5q-11 0 -18.5 7.5t-7.5 20.5v4.5t1 4.5l35 74q6 13 13.5 19t24.5 6q14 0 21.5 -9t7.5 -22q0 -7 -3 -11z" />
    <glyph glyph-name="Ocircumflex" unicode="&#xd4;" horiz-adv-x="680" 
d="M340 575q-60 0 -113 -23t-92 -62t-62 -92t-23 -113t23 -113t62 -92t92 -62t113 -23t113 23t92 62t62 92t23 113t-23 113t-62 92t-92 62t-113 23zM340 54q-47 0 -88.5 18t-72.5 49t-48.5 73t-17.5 89t17.5 89t48.5 73t72.5 49t88.5 18t88.5 -18t72 -49t48.5 -73t18 -89
t-18 -89t-48.5 -73t-72 -49t-88.5 -18zM348 759q3 0 6 -2t5 -4l78 -68q10 -8 10 -21q0 -10 -7 -17t-17 -7q-11 0 -19 8l-64 60l-64 -60q-8 -8 -19 -8q-10 0 -17 7t-7 17q0 13 10 21l78 68q2 2 5 4t6 2h16z" />
    <glyph glyph-name="Otilde" unicode="&#xd5;" horiz-adv-x="680" 
d="M340 575q60 0 113 -23t92 -62t62 -92t23 -113t-23 -113t-62 -92t-92 -62t-113 -23t-113 23t-92 62t-62 92t-23 113t23 113t62 92t92 62t113 23zM340 54q47 0 88.5 18t72 49t48.5 73t18 89t-18 89t-48.5 73t-72 49t-88.5 18t-88.5 -18t-72.5 -49t-48.5 -73t-17.5 -89
t17.5 -89t48.5 -73t72.5 -49t88.5 -18zM394 639q-16 0 -30 5.5t-27.5 11.5t-26.5 11.5t-27 5.5q-26 0 -49 -13q-8 -5 -16 -5q-11 0 -19 8t-8 19q0 14 10 22q19 14 39 23t43 9q25 0 38.5 -5.5t24 -11.5t20.5 -11.5t28 -5.5q26 0 49 13q8 5 16 5q11 0 19 -8t8 -19
q0 -14 -10 -22q-19 -14 -39 -23t-43 -9z" />
    <glyph glyph-name="Odieresis" unicode="&#xd6;" horiz-adv-x="680" 
d="M340 575q60 0 113 -23t92 -62t62 -92t23 -113t-23 -113t-62 -92t-92 -62t-113 -23t-113 23t-92 62t-62 92t-23 113t23 113t62 92t92 62t113 23zM340 54q47 0 88.5 18t72 49t48.5 73t18 89t-18 89t-48.5 73t-72 49t-88.5 18t-88.5 -18t-72.5 -49t-48.5 -73t-17.5 -89
t17.5 -89t48.5 -73t72.5 -49t88.5 -18zM228 678q0 17 11 28t28 11t28 -11t11 -28t-11 -28t-28 -11t-28 11t-11 28zM375 678q0 17 11 28t28 11t28 -11t11 -28t-11 -28t-28 -11t-28 11t-11 28z" />
    <glyph glyph-name="multiply" unicode="&#xd7;" horiz-adv-x="424" 
d="M212 152l-82 -81q-10 -10 -23 -10q-14 0 -23 9t-9 23q0 11 8 21l84 82l-84 83q-8 10 -8 21q0 14 9 23t23 9q13 0 23 -10l82 -81l82 81q10 10 23 10q14 0 23 -9t9 -23q0 -11 -8 -21l-84 -83l84 -82q8 -10 8 -21q0 -14 -9 -23t-23 -9q-13 0 -23 10z" />
    <glyph glyph-name="Oslash" unicode="&#xd8;" horiz-adv-x="680" 
d="M441 618q7 17 22 17q10 0 16.5 -6.5t6.5 -16.5q0 -5 -1 -8l-22 -56q37 -17 67.5 -44t52.5 -61t34.5 -74.5t12.5 -83.5q0 -60 -23 -113t-62 -92t-92 -62t-113 -23q-21 0 -40.5 3t-39.5 8l-20 -54q-7 -17 -22 -17q-10 0 -16.5 6.5t-6.5 16.5q0 5 1 8l22 56q-37 17 -68 44
t-53 61t-34.5 74t-12.5 84q0 60 23 113t62 92t92 62t113 23q21 0 40.5 -3t39.5 -8zM113 283q0 -68 34.5 -122t91.5 -83l159 426q-30 8 -58 8q-47 0 -88.5 -18t-72.5 -49t-48.5 -73t-17.5 -89zM340 54q47 0 88.5 18t72 49t48.5 73t18 89q0 68 -35 122.5t-92 82.5l-159 -426
q30 -8 59 -8z" />
    <glyph glyph-name="Ugrave" unicode="&#xd9;" horiz-adv-x="626" 
d="M312 -5q-117 0 -177 63t-60 181v297q0 14 8.5 23t22.5 9t23 -9t9 -23v-276q0 -104 39.5 -155t135.5 -51t135.5 51t39.5 155v276q0 14 9 23t23 9t22.5 -9t8.5 -23v-297q0 -118 -60.5 -181t-178.5 -63zM221 733q-3 4 -3 11q0 13 7.5 22t21.5 9q17 0 24.5 -6t13.5 -19
l35 -74q1 -2 1 -4.5v-4.5q0 -13 -7.5 -20.5t-18.5 -7.5q-9 0 -16 5.5t-12 13.5z" />
    <glyph glyph-name="Uacute" unicode="&#xda;" horiz-adv-x="626" 
d="M312 -5q-117 0 -177 63t-60 181v297q0 14 8.5 23t22.5 9t23 -9t9 -23v-276q0 -104 39.5 -155t135.5 -51t135.5 51t39.5 155v276q0 14 9 23t23 9t22.5 -9t8.5 -23v-297q0 -118 -60.5 -181t-178.5 -63zM355 658q-5 -8 -12 -13.5t-16 -5.5q-11 0 -18.5 7.5t-7.5 20.5v4.5
t1 4.5l35 74q6 13 13.5 19t24.5 6q14 0 21.5 -9t7.5 -22q0 -7 -3 -11z" />
    <glyph glyph-name="Ucircumflex" unicode="&#xdb;" horiz-adv-x="626" 
d="M312 -5q118 0 178.5 63t60.5 181v297q0 14 -8.5 23t-22.5 9t-23 -9t-9 -23v-276q0 -104 -39.5 -155t-135.5 -51t-135.5 51t-39.5 155v276q0 14 -9 23t-23 9t-22.5 -9t-8.5 -23v-297q0 -118 60 -181t177 -63zM321 759q3 0 6 -2t5 -4l78 -68q10 -8 10 -21q0 -10 -7 -17
t-17 -7q-11 0 -19 8l-64 60l-64 -60q-8 -8 -19 -8q-10 0 -17 7t-7 17q0 13 10 21l78 68q2 2 5 4t6 2h16z" />
    <glyph glyph-name="Udieresis" unicode="&#xdc;" horiz-adv-x="626" 
d="M202 678q0 17 11 28t28 11t28 -11t11 -28t-11 -28t-28 -11t-28 11t-11 28zM349 678q0 17 11 28t28 11t28 -11t11 -28t-11 -28t-28 -11t-28 11t-11 28zM312 -5q-117 0 -177 63t-60 181v297q0 14 8.5 23t22.5 9t23 -9t9 -23v-276q0 -104 39.5 -155t135.5 -51t135.5 51
t39.5 155v276q0 14 9 23t23 9t22.5 -9t8.5 -23v-297q0 -118 -60.5 -181t-178.5 -63z" />
    <glyph glyph-name="Yacute" unicode="&#xdd;" horiz-adv-x="536" 
d="M300 32q0 -14 -9 -23t-23 -9t-22.5 9t-8.5 23v187l-207 301q-5 8 -5 17q0 14 8.5 22.5t22.5 8.5q17 0 26 -14l186 -271l186 271q9 14 26 14q14 0 22.5 -8.5t8.5 -22.5q0 -9 -5 -17l-206 -300v-188zM314 658q-5 -8 -12 -13.5t-16 -5.5q-11 0 -18.5 7.5t-7.5 20.5v4.5
t1 4.5l35 74q6 13 13.5 19t24.5 6q14 0 21.5 -9t7.5 -22q0 -7 -3 -11z" />
    <glyph glyph-name="Thorn" unicode="&#xde;" horiz-adv-x="515" 
d="M322 175q44 0 74.5 27t30.5 90q0 32 -8.5 54t-22.5 36t-33 20.5t-41 6.5h-184v-234h184zM138 472h196q32 0 60.5 -13t49.5 -36.5t33.5 -56.5t12.5 -73q0 -41 -12.5 -73.5t-33.5 -55.5t-49.5 -35.5t-60.5 -12.5h-196v-84q0 -14 -9 -23t-23 -9t-22.5 9t-8.5 23v504
q0 14 8.5 23t22.5 9t23 -9t9 -23v-64z" />
    <glyph glyph-name="germandbls" unicode="&#xdf;" horiz-adv-x="563" 
d="M311 254q-14 0 -22.5 8.5t-8.5 22.5t8.5 23t22.5 9h24q47 0 78.5 26.5t31.5 69.5q0 44 -31.5 71.5t-78.5 27.5h-90q-46 0 -76.5 -27.5t-30.5 -71.5v-381q0 -14 -9 -23t-23 -9t-22.5 9t-8.5 23v381q0 34 12.5 63.5t35 51.5t54.5 34.5t71 12.5h96q34 0 63.5 -12.5t52 -34.5
t35.5 -51.5t13 -63.5q0 -32 -14.5 -64t-52.5 -62q36 -29 51.5 -63.5t15.5 -65.5q0 -33 -13 -62t-35.5 -50.5t-52.5 -33.5t-63 -12h-33q-14 0 -22.5 8.5t-8.5 22.5t8.5 23t22.5 9h23q22 0 42 7t35.5 19.5t24.5 30t9 38.5q0 19 -6.5 36t-18.5 30.5t-28.5 21.5t-36.5 8h-44z
" />
    <glyph glyph-name="agrave" unicode="&#xe0;" horiz-adv-x="521" 
d="M241 54q28 0 54 10t45.5 29t31 46t11.5 62q0 34 -12 60t-31.5 44t-45 27.5t-53.5 9.5q-29 0 -54.5 -9.5t-44 -27.5t-29 -44.5t-10.5 -59.5q0 -40 10.5 -68t29 -45.5t44 -25.5t54.5 -8zM390 372q0 12 8 20t20 8t20 -8t8 -20v-344q0 -12 -8 -20t-20 -8t-19 8t-9 20l-3 27
q-23 -21 -43.5 -33t-40 -18t-37.5 -7.5t-34 -1.5q-48 0 -84 16.5t-60 44.5t-36 65.5t-12 80.5q0 45 14.5 82t40.5 64t61.5 42t77.5 15q7 0 23.5 -1.5t37.5 -7.5t45 -19t47 -35zM177 570q-3 4 -3 11q0 13 7.5 22t21.5 9q17 0 24.5 -6t13.5 -19l35 -74q1 -2 1 -4.5v-4.5
q0 -13 -7.5 -20.5t-18.5 -7.5q-9 0 -16 5.5t-12 13.5z" />
    <glyph glyph-name="aacute" unicode="&#xe1;" horiz-adv-x="521" 
d="M241 54q28 0 54 10t45.5 29t31 46t11.5 62q0 34 -12 60t-31.5 44t-45 27.5t-53.5 9.5q-29 0 -54.5 -9.5t-44 -27.5t-29 -44.5t-10.5 -59.5q0 -40 10.5 -68t29 -45.5t44 -25.5t54.5 -8zM390 372q0 12 8 20t20 8t20 -8t8 -20v-344q0 -12 -8 -20t-20 -8t-19 8t-9 20l-3 27
q-23 -21 -43.5 -33t-40 -18t-37.5 -7.5t-34 -1.5q-48 0 -84 16.5t-60 44.5t-36 65.5t-12 80.5q0 45 14.5 82t40.5 64t61.5 42t77.5 15q7 0 23.5 -1.5t37.5 -7.5t45 -19t47 -35zM286 495q-5 -8 -12 -13.5t-16 -5.5q-11 0 -18.5 7.5t-7.5 20.5v4.5t1 4.5l35 74q6 13 13.5 19
t24.5 6q14 0 21.5 -9t7.5 -22q0 -7 -3 -11z" />
    <glyph glyph-name="acircumflex" unicode="&#xe2;" horiz-adv-x="521" 
d="M241 54q-29 0 -54.5 8t-44 25.5t-29 45.5t-10.5 68q0 33 10.5 59.5t29 44.5t44 27.5t54.5 9.5q28 0 53.5 -9.5t45 -27.5t31.5 -44t12 -60q0 -35 -11.5 -62t-31 -46t-45.5 -29t-54 -10zM387 342q-23 22 -47 35t-45 19t-37.5 7.5t-23.5 1.5q-42 0 -77.5 -15t-61.5 -42
t-40.5 -64t-14.5 -82q0 -43 12 -80.5t36 -65.5t60 -44.5t84 -16.5q16 0 34 1.5t37.5 7.5t40 18t43.5 33l3 -27q2 -12 9 -20t19 -8t20 8t8 20v344q0 12 -8 20t-20 8t-20 -8t-8 -20zM255 595q3 0 6 -2t5 -4l78 -68q10 -8 10 -21q0 -10 -7 -17t-17 -7q-11 0 -19 8l-64 60
l-64 -60q-8 -8 -19 -8q-10 0 -17 7t-7 17q0 13 10 21l78 68q2 2 5 4t6 2h16z" />
    <glyph glyph-name="atilde" unicode="&#xe3;" horiz-adv-x="521" 
d="M241 54q28 0 54 10t45.5 29t31 46t11.5 62q0 34 -12 60t-31.5 44t-45 27.5t-53.5 9.5q-29 0 -54.5 -9.5t-44 -27.5t-29 -44.5t-10.5 -59.5q0 -40 10.5 -68t29 -45.5t44 -25.5t54.5 -8zM390 372q0 12 8 20t20 8t20 -8t8 -20v-344q0 -12 -8 -20t-20 -8t-19 8t-9 20l-3 27
q-23 -21 -43.5 -33t-40 -18t-37.5 -7.5t-34 -1.5q-48 0 -84 16.5t-60 44.5t-36 65.5t-12 80.5q0 45 14.5 82t40.5 64t61.5 42t77.5 15q7 0 23.5 -1.5t37.5 -7.5t45 -19t47 -35zM319 476q-16 0 -30 5.5t-27.5 11.5t-26.5 11.5t-27 5.5q-26 0 -49 -13q-8 -5 -16 -5
q-11 0 -19 8t-8 19q0 14 10 22q19 14 39 23t43 9q25 0 38.5 -5.5t24 -11.5t20.5 -11.5t28 -5.5q26 0 49 13q8 5 16 5q11 0 19 -8t8 -19q0 -14 -10 -22q-19 -14 -39 -23t-43 -9z" />
    <glyph glyph-name="adieresis" unicode="&#xe4;" horiz-adv-x="521" 
d="M134 531q0 17 11 28t28 11t28 -11t11 -28t-11 -28t-28 -11t-28 11t-11 28zM284 531q0 17 11 28t28 11t28 -11t11 -28t-11 -28t-28 -11t-28 11t-11 28zM241 54q28 0 54 10t45.5 29t31 46t11.5 62q0 34 -12 60t-31.5 44t-45 27.5t-53.5 9.5q-29 0 -54.5 -9.5t-44 -27.5
t-29 -44.5t-10.5 -59.5q0 -40 10.5 -68t29 -45.5t44 -25.5t54.5 -8zM390 372q0 12 8 20t20 8t20 -8t8 -20v-344q0 -12 -8 -20t-20 -8t-19 8t-9 20l-3 27q-23 -21 -43.5 -33t-40 -18t-37.5 -7.5t-34 -1.5q-48 0 -84 16.5t-60 44.5t-36 65.5t-12 80.5q0 45 14.5 82t40.5 64
t61.5 42t77.5 15q7 0 23.5 -1.5t37.5 -7.5t45 -19t47 -35z" />
    <glyph glyph-name="aring" unicode="&#xe5;" horiz-adv-x="521" 
d="M250 684q20 0 38 -7.5t31 -21t20.5 -31t7.5 -37.5q0 -19 -7.5 -36.5t-20.5 -30.5t-31 -20.5t-38 -7.5t-37 7.5t-30 20.5t-20.5 30.5t-7.5 36.5q0 20 7.5 37.5t20.5 31t30 21t37 7.5zM252 542q16 0 28 12.5t12 32.5t-12 30.5t-28 10.5t-28.5 -10.5t-12.5 -30.5t12.5 -32.5
t28.5 -12.5zM241 54q28 0 54 10t45.5 29t31 46t11.5 62q0 34 -12 60t-31.5 44t-45 27.5t-53.5 9.5q-29 0 -54.5 -9.5t-44 -27.5t-29 -44.5t-10.5 -59.5q0 -40 10.5 -68t29 -45.5t44 -25.5t54.5 -8zM390 372q0 12 8 20t20 8t20 -8t8 -20v-344q0 -12 -8 -20t-20 -8t-19 8
t-9 20l-3 27q-23 -21 -43.5 -33t-40 -18t-37.5 -7.5t-34 -1.5q-48 0 -84 16.5t-60 44.5t-36 65.5t-12 80.5q0 45 14.5 82t40.5 64t61.5 42t77.5 15q7 0 23.5 -1.5t37.5 -7.5t45 -19t47 -35z" />
    <glyph glyph-name="ae" unicode="&#xe6;" horiz-adv-x="740" 
d="M635 226q0 33 -11.5 55.5t-30 36t-41.5 19t-46 5.5t-45 -6t-39.5 -19.5t-28 -35.5t-10.5 -55h252zM210 55q5 0 17 2t27 7t31.5 14.5t31.5 24.5v30q-9 14 -23 24.5t-30.5 17t-33.5 10t-31 3.5q-54 0 -72.5 -17t-18.5 -51q0 -28 24 -46.5t78 -18.5zM383 168
q0 -37 15.5 -59.5t38 -34.5t47 -16t43.5 -4q18 0 46 5t51 14q6 2 11 2q12 0 20.5 -8.5t8.5 -20.5q0 -17 -12 -24q-27 -14 -61 -20.5t-63 -6.5q-52 0 -95.5 17t-72.5 53q-14 -26 -39.5 -40.5t-52 -21t-47 -7.5t-23.5 -1q-15 0 -41 3t-51 15.5t-43 38t-18 69.5q0 70 38.5 100
t97.5 30q34 0 68.5 -8.5t68.5 -43.5v9q-1 43 -10.5 69t-26.5 40.5t-42 19.5t-58 5q-19 0 -56 -8q-2 -1 -7 -1q-12 0 -21 9t-9 21q0 11 6 19t15 11q26 8 47 10t39 2q57 0 96.5 -19t61.5 -54q23 33 61 53t95 20q51 0 87 -16.5t59 -44.5t34 -65t11 -79q0 -12 -8.5 -22
t-20.5 -10h-288z" />
    <glyph glyph-name="ccedilla" unicode="&#xe7;" horiz-adv-x="407" 
d="M182 -119q9 -5 29 -11t34 -6q10 0 23.5 4t13.5 18q0 15 -22 26.5t-51 26.5l8 58q-37 5 -69.5 23t-56.5 45t-37.5 61.5t-13.5 73.5q0 42 16.5 79.5t44 65t65 44t79.5 16.5q65 0 114 -32q13 -8 13 -23q0 -11 -8.5 -19.5t-19.5 -8.5q-7 0 -13 3q-20 10 -44 13.5t-42 3.5
q-30 0 -55.5 -11.5t-45 -31t-30.5 -45.5t-11 -56t11 -56t30.5 -45.5t45 -31t55.5 -11.5q20 0 42 3t41 9q6 3 13 3q11 0 19.5 -8.5t8.5 -19.5q0 -15 -13 -23q-22 -11 -47.5 -16t-50.5 -7l-4 -31q32 -19 52.5 -36.5t20.5 -40.5q0 -17 -8.5 -28t-21 -17.5t-28 -9.5t-29.5 -3
q-43 0 -77 21q-8 5 -8 15q0 8 5 13t13 5q3 0 9 -2z" />
    <glyph glyph-name="egrave" unicode="&#xe8;" horiz-adv-x="462" 
d="M357 226q0 33 -11.5 55.5t-30 36t-41.5 19t-46 5.5t-45 -6t-39.5 -19.5t-28 -35.5t-10.5 -55h252zM105 168q0 -37 15.5 -59.5t38 -34.5t47 -16t43.5 -4q18 0 46 5t51 14q6 2 11 2q12 0 20.5 -8.5t8.5 -20.5q0 -17 -12 -24q-27 -14 -61 -20.5t-63 -6.5q-44 0 -82 12
t-66.5 37.5t-45 64t-16.5 91.5q0 42 11 79t34 65t59 44.5t87 16.5t87 -16.5t59 -44.5t34 -65t11 -79q0 -12 -8.5 -22t-20.5 -10h-288zM153 570q-3 4 -3 11q0 13 7.5 22t21.5 9q17 0 24.5 -6t13.5 -19l35 -74q1 -2 1 -4.5v-4.5q0 -13 -7.5 -20.5t-18.5 -7.5q-9 0 -16 5.5
t-12 13.5z" />
    <glyph glyph-name="eacute" unicode="&#xe9;" horiz-adv-x="462" 
d="M357 226q0 33 -11.5 55.5t-30 36t-41.5 19t-46 5.5t-45 -6t-39.5 -19.5t-28 -35.5t-10.5 -55h252zM105 168q0 -37 15.5 -59.5t38 -34.5t47 -16t43.5 -4q18 0 46 5t51 14q6 2 11 2q12 0 20.5 -8.5t8.5 -20.5q0 -17 -12 -24q-27 -14 -61 -20.5t-63 -6.5q-44 0 -82 12
t-66.5 37.5t-45 64t-16.5 91.5q0 42 11 79t34 65t59 44.5t87 16.5t87 -16.5t59 -44.5t34 -65t11 -79q0 -12 -8.5 -22t-20.5 -10h-288zM266 495q-5 -8 -12 -13.5t-16 -5.5q-11 0 -18.5 7.5t-7.5 20.5v4.5t1 4.5l35 74q6 13 13.5 19t24.5 6q14 0 21.5 -9t7.5 -22q0 -7 -3 -11z
" />
    <glyph glyph-name="ecircumflex" unicode="&#xea;" horiz-adv-x="462" 
d="M105 226q0 33 10.5 55t28 35.5t39.5 19.5t45 6t46 -5.5t41.5 -19t30 -36t11.5 -55.5h-252zM393 168q12 0 20.5 10t8.5 22q0 42 -11 79t-34 65t-59 44.5t-87 16.5t-87 -16.5t-59 -44.5t-34 -65t-11 -79q0 -53 16.5 -91.5t45 -64t66.5 -37.5t82 -12q29 0 63 6.5t61 20.5
q12 7 12 24q0 12 -8.5 20.5t-20.5 8.5q-5 0 -11 -2q-23 -9 -51 -14t-46 -5q-19 0 -43.5 4t-47 16t-38 34.5t-15.5 59.5h288zM237 595q3 0 6 -2t5 -4l78 -68q10 -8 10 -21q0 -10 -7 -17t-17 -7q-11 0 -19 8l-64 60l-64 -60q-8 -8 -19 -8q-10 0 -17 7t-7 17q0 13 10 21l78 68
q2 2 5 4t6 2h16z" />
    <glyph glyph-name="edieresis" unicode="&#xeb;" horiz-adv-x="462" 
d="M106 531q0 17 11 28t28 11t28 -11t11 -28t-11 -28t-28 -11t-28 11t-11 28zM256 531q0 17 11 28t28 11t28 -11t11 -28t-11 -28t-28 -11t-28 11t-11 28zM357 226q0 33 -11.5 55.5t-30 36t-41.5 19t-46 5.5t-45 -6t-39.5 -19.5t-28 -35.5t-10.5 -55h252zM105 168
q0 -37 15.5 -59.5t38 -34.5t47 -16t43.5 -4q18 0 46 5t51 14q6 2 11 2q12 0 20.5 -8.5t8.5 -20.5q0 -17 -12 -24q-27 -14 -61 -20.5t-63 -6.5q-44 0 -82 12t-66.5 37.5t-45 64t-16.5 91.5q0 42 11 79t34 65t59 44.5t87 16.5t87 -16.5t59 -44.5t34 -65t11 -79q0 -12 -8.5 -22
t-20.5 -10h-288z" />
    <glyph glyph-name="igrave" unicode="&#xec;" 
d="M75 368q0 14 8.5 23t22.5 9t23 -9t9 -23v-336q0 -14 -9 -23t-23 -9t-22.5 9t-8.5 23v336zM20 570q-3 4 -3 11q0 13 7.5 22t21.5 9q17 0 24.5 -6t13.5 -19l35 -74q1 -2 1 -4.5v-4.5q0 -13 -7.5 -20.5t-18.5 -7.5q-9 0 -16 5.5t-12 13.5z" />
    <glyph glyph-name="iacute" unicode="&#xed;" 
d="M75 368q0 14 8.5 23t22.5 9t23 -9t9 -23v-336q0 -14 -9 -23t-23 -9t-22.5 9t-8.5 23v336zM144 495q-5 -8 -12 -13.5t-16 -5.5q-11 0 -18.5 7.5t-7.5 20.5v4.5t1 4.5l35 74q6 13 13.5 19t24.5 6q14 0 21.5 -9t7.5 -22q0 -7 -3 -11z" />
    <glyph glyph-name="icircumflex" unicode="&#xee;" 
d="M75 32q0 -14 8.5 -23t22.5 -9t23 9t9 23v336q0 14 -9 23t-23 9t-22.5 -9t-8.5 -23v-336zM115 595q3 0 6 -2t5 -4l78 -68q10 -8 10 -21q0 -10 -7 -17t-17 -7q-11 0 -19 8l-64 60l-64 -60q-8 -8 -19 -8q-10 0 -17 7t-7 17q0 13 10 21l78 68q2 2 5 4t6 2h16z" />
    <glyph glyph-name="idieresis" unicode="&#xef;" 
d="M15 510q0 17 11 28t28 11t28 -11t11 -28t-11 -28t-28 -11t-28 11t-11 28zM121 510q0 17 11 28t28 11t28 -11t11 -28t-11 -28t-28 -11t-28 11t-11 28zM75 368q0 14 8.5 23t22.5 9t23 -9t9 -23v-336q0 -14 -9 -23t-23 -9t-22.5 9t-8.5 23v336z" />
    <glyph glyph-name="eth" unicode="&#xf0;" horiz-adv-x="497" 
d="M343 443l86 -158q10 -18 19 -45.5t9 -48.5q0 -48 -17 -85t-45.5 -61.5t-66 -37t-78.5 -12.5q-42 0 -80 12.5t-67 37t-46 61.5t-17 85q0 39 17.5 71.5t46.5 56t67 36t80 12.5h61l-41 76h-81q-12 0 -19.5 7.5t-7.5 19.5q0 11 7.5 19t19.5 8h52l-12 23q-5 8 -5 17q0 13 9 22
t22 9q17 0 27 -15l30 -56h83q12 0 19.5 -8t7.5 -19q0 -12 -7.5 -19.5t-19.5 -7.5h-53zM248 309q-28 0 -54 -7t-46.5 -22t-32.5 -38.5t-12 -56.5t12.5 -58t32.5 -41t46.5 -24t54.5 -8q27 0 53.5 8t46.5 24t32.5 41t12.5 58t-12.5 56.5t-33 38.5t-47 22t-53.5 7z" />
    <glyph glyph-name="ntilde" unicode="&#xf1;" horiz-adv-x="510" 
d="M134 342q19 22 38.5 34.5t38 19t35 8t30.5 1.5q49 0 81.5 -14t52 -39.5t27.5 -61t8 -79.5v-179q0 -14 -9 -23t-23 -9t-22.5 9t-8.5 23v180q0 28 -2.5 52t-14 41t-35.5 27t-66 10q-30 0 -53.5 -11.5t-39.5 -30.5t-24.5 -44.5t-8.5 -53.5v-170q0 -14 -9 -23t-23 -9t-22.5 9
t-8.5 23v340q0 12 8 20t20 8t20 -8t8 -20zM324 476q-16 0 -30 5.5t-27.5 11.5t-26.5 11.5t-27 5.5q-26 0 -49 -13q-8 -5 -16 -5q-11 0 -19 8t-8 19q0 14 10 22q19 14 39 23t43 9q25 0 38.5 -5.5t24 -11.5t20.5 -11.5t28 -5.5q26 0 49 13q8 5 16 5q11 0 19 -8t8 -19
q0 -14 -10 -22q-19 -14 -39 -23t-43 -9z" />
    <glyph glyph-name="ograve" unicode="&#xf2;" horiz-adv-x="490" 
d="M245 405q42 0 79.5 -16.5t65 -44t44 -65t16.5 -79.5t-16.5 -79.5t-44 -65t-65 -44t-79.5 -16.5t-79.5 16.5t-65 44t-44 65t-16.5 79.5t16.5 79.5t44 65t65 44t79.5 16.5zM245 54q30 0 55.5 11.5t45 31t30.5 45.5t11 56t-11 56t-30.5 45.5t-45 31t-55.5 11.5t-55.5 -11.5
t-45 -31t-30.5 -45.5t-11 -56t11 -56t30.5 -45.5t45 -31t55.5 -11.5zM158 570q-3 4 -3 11q0 13 7.5 22t21.5 9q17 0 24.5 -6t13.5 -19l35 -74q1 -2 1 -4.5v-4.5q0 -13 -7.5 -20.5t-18.5 -7.5q-9 0 -16 5.5t-12 13.5z" />
    <glyph glyph-name="oacute" unicode="&#xf3;" horiz-adv-x="490" 
d="M245 405q42 0 79.5 -16.5t65 -44t44 -65t16.5 -79.5t-16.5 -79.5t-44 -65t-65 -44t-79.5 -16.5t-79.5 16.5t-65 44t-44 65t-16.5 79.5t16.5 79.5t44 65t65 44t79.5 16.5zM245 54q30 0 55.5 11.5t45 31t30.5 45.5t11 56t-11 56t-30.5 45.5t-45 31t-55.5 11.5t-55.5 -11.5
t-45 -31t-30.5 -45.5t-11 -56t11 -56t30.5 -45.5t45 -31t55.5 -11.5zM283 495q-5 -8 -12 -13.5t-16 -5.5q-11 0 -18.5 7.5t-7.5 20.5v4.5t1 4.5l35 74q6 13 13.5 19t24.5 6q14 0 21.5 -9t7.5 -22q0 -7 -3 -11z" />
    <glyph glyph-name="ocircumflex" unicode="&#xf4;" horiz-adv-x="490" 
d="M245 405q-42 0 -79.5 -16.5t-65 -44t-44 -65t-16.5 -79.5t16.5 -79.5t44 -65t65 -44t79.5 -16.5t79.5 16.5t65 44t44 65t16.5 79.5t-16.5 79.5t-44 65t-65 44t-79.5 16.5zM245 54q-30 0 -55.5 11.5t-45 31t-30.5 45.5t-11 56t11 56t30.5 45.5t45 31t55.5 11.5t55.5 -11.5
t45 -31t30.5 -45.5t11 -56t-11 -56t-30.5 -45.5t-45 -31t-55.5 -11.5zM253 595q3 0 6 -2t5 -4l78 -68q10 -8 10 -21q0 -10 -7 -17t-17 -7q-11 0 -19 8l-64 60l-64 -60q-8 -8 -19 -8q-10 0 -17 7t-7 17q0 13 10 21l78 68q2 2 5 4t6 2h16z" />
    <glyph glyph-name="otilde" unicode="&#xf5;" horiz-adv-x="490" 
d="M245 405q42 0 79.5 -16.5t65 -44t44 -65t16.5 -79.5t-16.5 -79.5t-44 -65t-65 -44t-79.5 -16.5t-79.5 16.5t-65 44t-44 65t-16.5 79.5t16.5 79.5t44 65t65 44t79.5 16.5zM245 54q30 0 55.5 11.5t45 31t30.5 45.5t11 56t-11 56t-30.5 45.5t-45 31t-55.5 11.5t-55.5 -11.5
t-45 -31t-30.5 -45.5t-11 -56t11 -56t30.5 -45.5t45 -31t55.5 -11.5zM303 476q-16 0 -30 5.5t-27.5 11.5t-26.5 11.5t-27 5.5q-26 0 -49 -13q-8 -5 -16 -5q-11 0 -19 8t-8 19q0 14 10 22q19 14 39 23t43 9q25 0 38.5 -5.5t24 -11.5t20.5 -11.5t28 -5.5q26 0 49 13q8 5 16 5
q11 0 19 -8t8 -19q0 -14 -10 -22q-19 -14 -39 -23t-43 -9z" />
    <glyph glyph-name="odieresis" unicode="&#xf6;" horiz-adv-x="490" 
d="M245 405q42 0 79.5 -16.5t65 -44t44 -65t16.5 -79.5t-16.5 -79.5t-44 -65t-65 -44t-79.5 -16.5t-79.5 16.5t-65 44t-44 65t-16.5 79.5t16.5 79.5t44 65t65 44t79.5 16.5zM245 54q30 0 55.5 11.5t45 31t30.5 45.5t11 56t-11 56t-30.5 45.5t-45 31t-55.5 11.5t-55.5 -11.5
t-45 -31t-30.5 -45.5t-11 -56t11 -56t30.5 -45.5t45 -31t55.5 -11.5zM131 531q0 17 11 28t28 11t28 -11t11 -28t-11 -28t-28 -11t-28 11t-11 28zM281 531q0 17 11 28t28 11t28 -11t11 -28t-11 -28t-28 -11t-28 11t-11 28z" />
    <glyph glyph-name="divide" unicode="&#xf7;" horiz-adv-x="453" 
d="M186 34q0 17 11 28t28 11t28 -11t11 -28t-11 -28t-28 -11t-28 11t-11 28zM186 325q0 17 11 28t28 11t28 -11t11 -28t-11 -28t-28 -11t-28 11t-11 28zM106 144q-14 0 -22.5 8.5t-8.5 22.5t8.5 23t22.5 9h241q14 0 22.5 -9t8.5 -23t-8.5 -22.5t-22.5 -8.5h-241z" />
    <glyph glyph-name="oslash" unicode="&#xf8;" horiz-adv-x="490" 
d="M103 193q0 -40 19.5 -73t51.5 -52l99 266q-14 3 -28 3q-30 0 -55.5 -11.5t-45 -31t-30.5 -45.5t-11 -56zM245 49q30 0 55.5 11.5t45 31t30.5 45.5t11 56q0 40 -19.5 73t-51.5 52l-100 -266q13 -3 29 -3zM337 378q50 -26 81.5 -74.5t31.5 -108.5q0 -42 -16.5 -79.5
t-44 -65t-65 -44t-79.5 -16.5q-26 0 -50 6l-20 -54q-7 -17 -22 -17q-10 0 -16.5 6.5t-6.5 16.5q0 5 1 8l22 56q-51 26 -82 74.5t-31 108.5q0 42 16.5 79.5t44 65t65 44t79.5 16.5q26 0 50 -6l20 54q7 17 22 17q10 0 16.5 -6.5t6.5 -16.5q0 -5 -1 -8z" />
    <glyph glyph-name="ugrave" unicode="&#xf9;" horiz-adv-x="498" 
d="M423 28q0 -12 -8 -20t-20 -8t-20 8t-8 20l-2 26q-18 -22 -36.5 -34t-36 -17.5t-33 -6.5t-25.5 -1q-49 0 -81.5 14t-52 39.5t-27.5 61t-8 79.5v179q0 14 8.5 23t22.5 9t23 -9t9 -23v-184q0 -28 3.5 -52t15.5 -41t35.5 -27t63.5 -10q30 0 52 11.5t35.5 30.5t20 44.5
t6.5 53.5v174q0 14 8.5 23t22.5 9t23 -9t9 -23v-340zM159 570q-3 4 -3 11q0 13 7.5 22t21.5 9q17 0 24.5 -6t13.5 -19l35 -74q1 -2 1 -4.5v-4.5q0 -13 -7.5 -20.5t-18.5 -7.5q-9 0 -16 5.5t-12 13.5z" />
    <glyph glyph-name="uacute" unicode="&#xfa;" horiz-adv-x="498" 
d="M423 28q0 -12 -8 -20t-20 -8t-20 8t-8 20l-2 26q-18 -22 -36.5 -34t-36 -17.5t-33 -6.5t-25.5 -1q-49 0 -81.5 14t-52 39.5t-27.5 61t-8 79.5v179q0 14 8.5 23t22.5 9t23 -9t9 -23v-184q0 -28 3.5 -52t15.5 -41t35.5 -27t63.5 -10q30 0 52 11.5t35.5 30.5t20 44.5
t6.5 53.5v174q0 14 8.5 23t22.5 9t23 -9t9 -23v-340zM276 495q-5 -8 -12 -13.5t-16 -5.5q-11 0 -18.5 7.5t-7.5 20.5v4.5t1 4.5l35 74q6 13 13.5 19t24.5 6q14 0 21.5 -9t7.5 -22q0 -7 -3 -11z" />
    <glyph glyph-name="ucircumflex" unicode="&#xfb;" horiz-adv-x="498" 
d="M423 368q0 14 -9 23t-23 9t-22.5 -9t-8.5 -23v-174q0 -28 -6.5 -53.5t-20 -44.5t-35.5 -30.5t-52 -11.5q-40 0 -63.5 10t-35.5 27t-15.5 41t-3.5 52v184q0 14 -9 23t-23 9t-22.5 -9t-8.5 -23v-179q0 -44 8 -79.5t27.5 -61t52 -39.5t81.5 -14q10 0 25.5 1t33 6.5t36 17.5
t36.5 34l2 -26q0 -12 8 -20t20 -8t20 8t8 20v340zM253 595q3 0 6 -2t5 -4l78 -68q10 -8 10 -21q0 -10 -7 -17t-17 -7q-11 0 -19 8l-64 60l-64 -60q-8 -8 -19 -8q-10 0 -17 7t-7 17q0 13 10 21l78 68q2 2 5 4t6 2h16z" />
    <glyph glyph-name="udieresis" unicode="&#xfc;" horiz-adv-x="498" 
d="M129 531q0 17 11 28t28 11t28 -11t11 -28t-11 -28t-28 -11t-28 11t-11 28zM279 531q0 17 11 28t28 11t28 -11t11 -28t-11 -28t-28 -11t-28 11t-11 28zM423 28q0 -12 -8 -20t-20 -8t-20 8t-8 20l-2 26q-18 -22 -36.5 -34t-36 -17.5t-33 -6.5t-25.5 -1q-49 0 -81.5 14
t-52 39.5t-27.5 61t-8 79.5v179q0 14 8.5 23t22.5 9t23 -9t9 -23v-184q0 -28 3.5 -52t15.5 -41t35.5 -27t63.5 -10q30 0 52 11.5t35.5 30.5t20 44.5t6.5 53.5v174q0 14 8.5 23t22.5 9t23 -9t9 -23v-340z" />
    <glyph glyph-name="yacute" unicode="&#xfd;" horiz-adv-x="498" 
d="M360 48q-17 -20 -35 -30.5t-35 -15.5t-31.5 -6t-24.5 -1q-49 0 -81.5 14t-52 39.5t-27.5 61t-8 79.5v179q0 14 8.5 23t22.5 9t23 -9t9 -23v-184q0 -28 3.5 -52t15.5 -41t35.5 -27t63.5 -10q30 0 52 11.5t35.5 30.5t20 44.5t6.5 53.5v174q0 14 8.5 23t22.5 9t23 -9t9 -23
v-389q0 -53 -17 -87t-44 -53.5t-60.5 -27t-66.5 -7.5q-43 0 -78.5 6t-63.5 21q-13 8 -13 23q0 12 8 20t19 8q5 0 8 -1q29 -11 58 -14.5t49 -3.5q42 0 68.5 8t42 24t21.5 39t6 52v62zM276 495q-5 -8 -12 -13.5t-16 -5.5q-11 0 -18.5 7.5t-7.5 20.5v4.5t1 4.5l35 74
q6 13 13.5 19t24.5 6q14 0 21.5 -9t7.5 -22q0 -7 -3 -11z" />
    <glyph glyph-name="thorn" unicode="&#xfe;" horiz-adv-x="521" 
d="M75 536q0 14 9 23t23 9t22.5 -9t8.5 -23v-190q22 21 45.5 33t44 17.5t36.5 7t23 1.5q42 0 77.5 -15t61.5 -42t40.5 -64t14.5 -82q0 -43 -12 -80.5t-36 -65.5t-60 -44.5t-84 -16.5q-32 0 -69 9t-82 47v-190q0 -14 -8.5 -23t-22.5 -9t-23 9t-9 23v675zM280 54q29 0 54.5 8
t44 25.5t29 45.5t10.5 68q0 33 -10.5 59.5t-29 44.5t-44 27.5t-54.5 9.5q-28 0 -53.5 -9.5t-45 -27.5t-31.5 -44t-12 -60q0 -35 11.5 -62t31 -46t45 -29t54.5 -10z" />
    <glyph glyph-name="ydieresis" unicode="&#xff;" horiz-adv-x="498" 
d="M129 531q0 17 11 28t28 11t28 -11t11 -28t-11 -28t-28 -11t-28 11t-11 28zM279 531q0 17 11 28t28 11t28 -11t11 -28t-11 -28t-28 -11t-28 11t-11 28zM360 48q-17 -20 -35 -30.5t-35 -15.5t-31.5 -6t-24.5 -1q-49 0 -81.5 14t-52 39.5t-27.5 61t-8 79.5v179q0 14 8.5 23
t22.5 9t23 -9t9 -23v-184q0 -28 3.5 -52t15.5 -41t35.5 -27t63.5 -10q30 0 52 11.5t35.5 30.5t20 44.5t6.5 53.5v174q0 14 8.5 23t22.5 9t23 -9t9 -23v-389q0 -53 -17 -87t-44 -53.5t-60.5 -27t-66.5 -7.5q-43 0 -78.5 6t-63.5 21q-13 8 -13 23q0 12 8 20t19 8q5 0 8 -1
q29 -11 58 -14.5t49 -3.5q42 0 68.5 8t42 24t21.5 39t6 52v62z" />
    <glyph glyph-name="dotlessi" unicode="&#x131;" 
d="M75 368q0 14 8.5 23t22.5 9t23 -9t9 -23v-336q0 -14 -9 -23t-23 -9t-22.5 9t-8.5 23v336z" />
    <glyph glyph-name="OE" unicode="&#x152;" horiz-adv-x="841" 
d="M749 568q13 0 22.5 -8.5t9.5 -22.5t-9.5 -23t-22.5 -9h-283v-198h220q13 0 22.5 -8.5t9.5 -22.5t-9.5 -23t-22.5 -9h-221v-181h284q13 0 22.5 -9t9.5 -23t-9.5 -22.5t-22.5 -8.5h-339l-69 -5q-60 0 -113 23t-92.5 62t-62.5 92t-23 113t23 113t62 92t92 62t113 23
q36 0 67 -7h342zM340 54q14 0 29.5 1t32.5 4v447q-29 6 -62 6q-47 0 -88.5 -18t-72.5 -49t-48.5 -73t-17.5 -89t17.5 -89t48.5 -73t72.5 -49t88.5 -18z" />
    <glyph glyph-name="oe" unicode="&#x153;" horiz-adv-x="809" 
d="M245 54q29 0 54.5 10.5t44.5 29.5t30.5 44t12.5 54v8q0 29 -11.5 55t-30.5 45.5t-45 30.5t-55 11q-30 0 -55.5 -11.5t-45 -31t-30.5 -45.5t-11 -56t11 -56t30.5 -45.5t45 -31t55.5 -11.5zM704 226q0 33 -11.5 55.5t-30 36t-41.5 19t-46 5.5t-45 -6t-39.5 -19.5t-28 -35.5
t-10.5 -55h252zM452 168q0 -37 15.5 -59.5t38 -34.5t47 -16t43.5 -4q18 0 46 5t51 14q6 2 11 2q12 0 20.5 -8.5t8.5 -20.5q0 -17 -12 -24q-27 -14 -61 -20.5t-63 -6.5q-59 0 -107.5 22t-75.5 69q-28 -42 -72 -66.5t-97 -24.5q-42 0 -79.5 16.5t-65 44t-44 65t-16.5 79.5
t16.5 79.5t44 65t65 44t79.5 16.5q52 0 95.5 -24.5t72.5 -64.5q21 40 61.5 64.5t103.5 24.5q51 0 87 -16.5t59 -44.5t34 -65t11 -79q0 -12 -8.5 -22t-20.5 -10h-288z" />
    <glyph glyph-name="Scaron" unicode="&#x160;" horiz-adv-x="496" 
d="M382 555q-27 8 -62 14t-70 6q-94 0 -142 -39t-48 -114q0 -48 24 -78.5t60.5 -51t78.5 -35.5t78.5 -30.5t60.5 -35.5t24 -52q0 -21 -10.5 -37t-28.5 -26.5t-41 -16t-48 -5.5q-47 0 -84 8.5t-63 18.5q-6 2 -10 2q-11 0 -19 -8.5t-8 -19.5q0 -18 17 -25q43 -20 88.5 -27.5
t87.5 -7.5q29 0 61 9t59 27t44.5 44.5t17.5 61.5q0 48 -24 79t-60.5 51.5t-78.5 35t-78.5 30t-60.5 35.5t-24 53q0 7 2 22.5t14.5 30.5t39 26.5t76.5 11.5q23 0 54 -3t56 -8q2 0 3 -0.5t3 -0.5q12 0 20.5 8t8.5 20q0 20 -18 27zM241 635q-3 0 -6 2t-5 4l-78 68q-10 8 -10 21
q0 10 7 17t17 7q11 0 19 -8l64 -60l64 60q8 8 19 8q10 0 17 -7t7 -17q0 -13 -10 -21l-78 -68q-2 -2 -5 -4t-6 -2h-16z" />
    <glyph glyph-name="scaron" unicode="&#x161;" horiz-adv-x="401" 
d="M296 395q-23 5 -51 7.5t-50 2.5q-69 0 -107 -26t-38 -79q0 -36 18 -58.5t45 -37t58 -25t58 -21t45 -24.5t18 -36q0 -17 -12 -25.5t-29 -13t-34.5 -5t-27.5 -0.5q-28 0 -53.5 6.5t-47.5 13.5q-6 2 -9 2q-11 0 -19.5 -8.5t-8.5 -20.5q0 -17 17 -25q29 -13 60 -20t63 -7
q28 0 57 5.5t53 19t39 35t15 54.5q0 28 -18 48.5t-45 35.5t-58 26.5t-58 23t-45 24t-18 28.5q0 10 3 18.5t13 15t28.5 10t48.5 3.5q19 0 41.5 -1.5t42.5 -4.5q12 0 21 9t9 20t-7 19.5t-17 10.5zM182 476q-3 0 -6 2t-5 4l-78 68q-10 8 -10 21q0 10 7 17t17 7q11 0 19 -8
l64 -60l64 60q8 8 19 8q10 0 17 -7t7 -17q0 -13 -10 -21l-78 -68q-2 -2 -5 -4t-6 -2h-16z" />
    <glyph glyph-name="Ydieresis" unicode="&#x178;" horiz-adv-x="536" 
d="M157 678q0 17 11 28t28 11t28 -11t11 -28t-11 -28t-28 -11t-28 11t-11 28zM304 678q0 17 11 28t28 11t28 -11t11 -28t-11 -28t-28 -11t-28 11t-11 28zM300 32q0 -14 -9 -23t-23 -9t-22.5 9t-8.5 23v187l-207 301q-5 8 -5 17q0 14 8.5 22.5t22.5 8.5q17 0 26 -14l186 -271
l186 271q9 14 26 14q14 0 22.5 -8.5t8.5 -22.5q0 -9 -5 -17l-206 -300v-188z" />
    <glyph glyph-name="Zcaron" unicode="&#x17d;" horiz-adv-x="475" 
d="M409 0q14 0 22.5 8.5t8.5 22.5t-8.5 23t-22.5 9h-272l302 483q1 3 1 7q0 6 -3.5 10.5t-8.5 4.5h-362q-14 0 -22.5 -9t-8.5 -23t8.5 -22.5t22.5 -8.5h273l-302 -483q-1 -3 -1 -7q0 -6 3.5 -10.5t8.5 -4.5h361zM235 635q-3 0 -6 2t-5 4l-78 68q-10 8 -10 21q0 10 7 17t17 7
q11 0 19 -8l64 -60l64 60q8 8 19 8q10 0 17 -7t7 -17q0 -13 -10 -21l-78 -68q-2 -2 -5 -4t-6 -2h-16z" />
    <glyph glyph-name="zcaron" unicode="&#x17e;" horiz-adv-x="413" 
d="M337 0q14 0 22.5 8.5t8.5 22.5t-8.5 23t-22.5 9h-186l215 315q1 3 1 7q0 6 -3.5 10.5t-8.5 4.5h-279q-14 0 -22.5 -9t-8.5 -23t8.5 -22.5t22.5 -8.5h186l-216 -315q-1 -3 -1 -7q0 -6 3.5 -10.5t8.5 -4.5h280zM198 476q-3 0 -6 2t-5 4l-78 68q-10 8 -10 21q0 10 7 17t17 7
q11 0 19 -8l64 -60l64 60q8 8 19 8q10 0 17 -7t7 -17q0 -13 -10 -21l-78 -68q-2 -2 -5 -4t-6 -2h-16z" />
    <glyph glyph-name="florin" unicode="&#x192;" horiz-adv-x="354" 
d="M346 568q8 -2 13 -9.5t5 -15.5q0 -10 -7.5 -17.5t-18.5 -7.5q-8 2 -18 2.5t-15 0.5q-26 0 -42.5 -7t-27.5 -23.5t-18 -44t-13 -67.5h89q14 0 22.5 -9t8.5 -23t-8.5 -22.5t-22.5 -8.5h-102l-93 -461q-2 -11 -11 -18.5t-20 -7.5q-14 0 -23 9.5t-9 22.5q0 6 1 8l91 447h-76
q-14 0 -22.5 8.5t-8.5 22.5t8.5 23t22.5 9h89q9 54 21 91.5t30 61t42 34t56 10.5q8 0 24 -1.5t33 -6.5z" />
    <glyph glyph-name="circumflex" unicode="&#x2c6;" horiz-adv-x="364" 
d="M190 568q3 0 6 -2t5 -4l78 -68q10 -8 10 -21q0 -10 -7 -17t-17 -7q-11 0 -19 8l-64 60l-64 -60q-8 -8 -19 -8q-10 0 -17 7t-7 17q0 13 10 21l78 68q2 2 5 4t6 2h16z" />
    <glyph glyph-name="tilde" unicode="&#x2dc;" horiz-adv-x="445" 
d="M278 471q-16 0 -30 5.5t-27.5 11.5t-26.5 11.5t-27 5.5q-26 0 -49 -13q-8 -5 -16 -5q-11 0 -19 8t-8 19q0 14 10 22q19 14 39 23t43 9q25 0 38.5 -5.5t24 -11.5t20.5 -11.5t28 -5.5q26 0 49 13q8 5 16 5q11 0 19 -8t8 -19q0 -14 -10 -22q-19 -14 -39 -23t-43 -9z" />
    <glyph glyph-name="endash" unicode="&#x2013;" horiz-adv-x="441" 
d="M106 155q-14 0 -22.5 8.5t-8.5 22.5t8.5 23t22.5 9h229q14 0 22.5 -9t8.5 -23t-8.5 -22.5t-22.5 -8.5h-229z" />
    <glyph glyph-name="emdash" unicode="&#x2014;" horiz-adv-x="503" 
d="M106 155q-14 0 -22.5 8.5t-8.5 22.5t8.5 23t22.5 9h291q14 0 22.5 -9t8.5 -23t-8.5 -22.5t-22.5 -8.5h-291z" />
    <glyph glyph-name="quoteleft" unicode="&#x2018;" horiz-adv-x="229" 
d="M130 498q11 -6 17.5 -15.5t6.5 -19.5q0 -17 -11.5 -28.5t-27.5 -11.5q-17 0 -28.5 11.5t-11.5 28.5q0 3 1.5 8t2.5 6l38 79q4 9 8.5 10.5t10.5 1.5q5 0 9.5 -2t4.5 -7q-1 0 -1 -1v-2z" />
    <glyph glyph-name="quoteright" unicode="&#x2019;" horiz-adv-x="229" 
d="M99 493q-11 6 -17.5 15.5t-6.5 19.5q0 17 11.5 28.5t27.5 11.5q17 0 28.5 -11.5t11.5 -28.5q0 -3 -1.5 -8t-2.5 -6l-38 -79q-4 -9 -8.5 -10.5t-10.5 -1.5q-5 0 -9.5 2t-4.5 7v1q0 1 0.5 1t0.5 1z" />
    <glyph glyph-name="quotesinglbase" unicode="&#x201a;" horiz-adv-x="229" 
d="M99 -16q-11 6 -17.5 15.5t-6.5 19.5q0 17 11.5 28.5t27.5 11.5q17 0 28.5 -11.5t11.5 -28.5q0 -3 -1.5 -8t-2.5 -6l-38 -79q-4 -9 -8.5 -10.5t-10.5 -1.5q-5 0 -9.5 2t-4.5 7v1q0 1 0.5 1t0.5 1z" />
    <glyph glyph-name="quotedblleft" unicode="&#x201c;" horiz-adv-x="358" 
d="M259 498q11 -6 17.5 -15.5t6.5 -19.5q0 -17 -11.5 -28.5t-27.5 -11.5q-17 0 -28.5 11.5t-11.5 28.5q0 3 1.5 8t2.5 6l38 79q4 9 8.5 10.5t10.5 1.5q5 0 9.5 -2t4.5 -7q-1 0 -1 -1v-2zM130 498q11 -6 17.5 -15.5t6.5 -19.5q0 -17 -11.5 -28.5t-27.5 -11.5
q-17 0 -28.5 11.5t-11.5 28.5q0 3 1.5 8t2.5 6l38 79q4 9 8.5 10.5t10.5 1.5q5 0 9.5 -2t4.5 -7q-1 0 -1 -1v-2z" />
    <glyph glyph-name="quotedblright" unicode="&#x201d;" horiz-adv-x="358" 
d="M99 493q-11 6 -17.5 15.5t-6.5 19.5q0 17 11.5 28.5t27.5 11.5q17 0 28.5 -11.5t11.5 -28.5q0 -3 -1.5 -8t-2.5 -6l-38 -79q-4 -9 -8.5 -10.5t-10.5 -1.5q-5 0 -9.5 2t-4.5 7v1q0 1 0.5 1t0.5 1zM228 493q-11 6 -17.5 15.5t-6.5 19.5q0 17 11.5 28.5t27.5 11.5
q17 0 28.5 -11.5t11.5 -28.5q0 -3 -1.5 -8t-2.5 -6l-38 -79q-4 -9 -8.5 -10.5t-10.5 -1.5q-5 0 -9.5 2t-4.5 7v1q0 1 0.5 1t0.5 1z" />
    <glyph glyph-name="quotedblbase" unicode="&#x201e;" horiz-adv-x="358" 
d="M99 -16q-11 6 -17.5 15.5t-6.5 19.5q0 17 11.5 28.5t27.5 11.5q17 0 28.5 -11.5t11.5 -28.5q0 -3 -1.5 -8t-2.5 -6l-38 -79q-4 -9 -8.5 -10.5t-10.5 -1.5q-5 0 -9.5 2t-4.5 7v1q0 1 0.5 1t0.5 1zM228 -16q-11 6 -17.5 15.5t-6.5 19.5q0 17 11.5 28.5t27.5 11.5
q17 0 28.5 -11.5t11.5 -28.5q0 -3 -1.5 -8t-2.5 -6l-38 -79q-4 -9 -8.5 -10.5t-10.5 -1.5q-5 0 -9.5 2t-4.5 7v1q0 1 0.5 1t0.5 1z" />
    <glyph glyph-name="dagger" unicode="&#x2020;" horiz-adv-x="432" 
d="M248 332v-481q0 -14 -9 -23t-23 -9t-22.5 9t-8.5 23v481h-79q-14 0 -22.5 8.5t-8.5 22.5t8.5 23t22.5 9h79v130q0 14 8.5 23t22.5 9t23 -9t9 -23v-130h78q14 0 22.5 -9t8.5 -23t-8.5 -22.5t-22.5 -8.5h-78z" />
    <glyph glyph-name="daggerdbl" unicode="&#x2021;" horiz-adv-x="432" 
d="M185 63v269h-79q-14 0 -22.5 8.5t-8.5 22.5t8.5 23t22.5 9h79v130q0 14 8.5 23t22.5 9t23 -9t9 -23v-130h78q14 0 22.5 -9t8.5 -23t-8.5 -22.5t-22.5 -8.5h-78v-269h78q14 0 22.5 -9t8.5 -23t-8.5 -22.5t-22.5 -8.5h-78v-149q0 -14 -9 -23t-23 -9t-22.5 9t-8.5 23v149
h-79q-14 0 -22.5 8.5t-8.5 22.5t8.5 23t22.5 9h79z" />
    <glyph glyph-name="bullet" unicode="&#x2022;" horiz-adv-x="243" 
d="M75 188q0 20 13 33t32 13q20 0 34 -13t14 -33q0 -19 -14 -32.5t-34 -13.5q-19 0 -32 13.5t-13 32.5z" />
    <glyph glyph-name="ellipsis" unicode="&#x2026;" horiz-adv-x="652" 
d="M75 34q0 17 11 28t28 11t28 -11t11 -28t-11 -28t-28 -11t-28 11t-11 28zM287 34q0 17 11 28t28 11t28 -11t11 -28t-11 -28t-28 -11t-28 11t-11 28zM499 34q0 17 11 28t28 11t28 -11t11 -28t-11 -28t-28 -11t-28 11t-11 28z" />
    <glyph glyph-name="perthousand" unicode="&#x2030;" horiz-adv-x="1233" 
d="M1021 272q28 0 52.5 -11t43.5 -29.5t30 -44t11 -53.5q0 -29 -11 -54t-30 -44t-43.5 -30t-52.5 -11q-29 0 -54.5 11t-44.5 30t-30 44t-11 54q0 28 11 53.5t30 44t44.5 29.5t54.5 11zM1020 46q30 0 53.5 25t23.5 63t-23.5 59.5t-53.5 21.5q-33 0 -57 -20.5t-24 -60.5
q0 -38 24 -63t57 -25zM215 568q28 0 52.5 -11t43.5 -29.5t30 -44t11 -53.5q0 -29 -11 -54t-30 -44t-43.5 -30t-52.5 -11q-29 0 -54.5 11t-44.5 30t-30 44t-11 54q0 28 11 53.5t30 44t44.5 29.5t54.5 11zM214 342q30 0 53.5 25t23.5 63t-23.5 59.5t-53.5 21.5
q-33 0 -57 -20.5t-24 -60.5q0 -38 24 -63t57 -25zM690 272q28 0 52.5 -11t43.5 -29.5t30 -44t11 -53.5q0 -29 -11 -54t-30 -44t-43.5 -30t-52.5 -11q-29 0 -54.5 11t-44.5 30t-30 44t-11 54q0 28 11 53.5t30 44t44.5 29.5t54.5 11zM689 46q30 0 53.5 25t23.5 63t-23.5 59.5
t-53.5 21.5q-33 0 -57 -20.5t-24 -60.5q0 -38 24 -63t57 -25zM561 551q8 17 28 17q13 0 22 -9t9 -22q0 -7 -4 -15l-274 -505q-9 -17 -28 -17q-13 0 -22 9t-9 22q0 7 4 15z" />
    <glyph glyph-name="guilsinglleft" unicode="&#x2039;" horiz-adv-x="478" 
d="M75 197q0 38 32 54l248 124q7 4 15 4q14 0 23.5 -9.5t9.5 -23.5q0 -10 -6 -17t-14 -12l-243 -119l243 -119q8 -5 14 -12t6 -17q0 -14 -9.5 -23.5t-23.5 -9.5q-8 0 -15 4l-248 124q-32 16 -32 52z" />
    <glyph glyph-name="guilsinglright" unicode="&#x203a;" horiz-adv-x="478" 
d="M403 197q0 -36 -32 -52l-248 -124q-7 -4 -15 -4q-14 0 -23.5 9.5t-9.5 23.5q0 10 6 17t14 12l243 119l-243 119q-8 5 -14 12t-6 17q0 14 9.5 23.5t23.5 9.5q8 0 15 -4l248 -124q32 -16 32 -54z" />
    <glyph glyph-name="Euro" unicode="&#x20ac;" horiz-adv-x="739" 
d="M252 176q29 -55 82 -88.5t119 -33.5q34 0 79.5 11.5t86.5 44.5q7 6 17 6q12 0 20 -8t8 -20q0 -9 -7 -18q-38 -39 -90.5 -57t-112.5 -18q-46 0 -88 13.5t-77 37.5t-62 57t-43 73h-82q-12 0 -19.5 7.5t-7.5 19.5t7.5 20t19.5 8h66q-3 13 -4 26.5t-1 27.5v14t1 15h-62
q-12 0 -19.5 7.5t-7.5 19.5t7.5 20t19.5 8h73q13 45 40 82.5t63.5 65t81 43t93.5 15.5q47 0 92.5 -14.5t82.5 -40.5q5 -5 9 -11.5t4 -13.5q0 -12 -9 -20.5t-21 -8.5q-11 0 -18 6q-31 22 -65 31t-75 9q-36 0 -68.5 -10.5t-60 -29.5t-48.5 -45.5t-33 -57.5h99q12 0 19.5 -8
t7.5 -20t-7.5 -19.5t-19.5 -7.5h-114q-2 -8 -2 -15.5v-15.5q0 -28 6 -52h110q12 0 19.5 -8t7.5 -20t-7.5 -19.5t-19.5 -7.5h-90z" />
    <glyph glyph-name="trademark" unicode="&#x2122;" horiz-adv-x="703" 
d="M294 568q10 0 16.5 -6.5t6.5 -16.5t-6.5 -16.5t-16.5 -6.5h-75v-234q0 -10 -6.5 -16.5t-16.5 -6.5q-11 0 -17 6.5t-6 16.5v234h-75q-10 0 -16.5 6.5t-6.5 16.5t6.5 16.5t16.5 6.5h196zM492 367q-5 0 -11 6l-79 87v-172q0 -10 -6.5 -16.5t-16.5 -6.5q-11 0 -17 6.5
t-6 16.5v274q3 6 8 6q4 0 10 -6l109 -125q8 -6 9 -6t9 6l109 125q6 6 10 6q5 0 8 -6v-274q0 -10 -6 -16.5t-17 -6.5q-10 0 -16.5 6.5t-6.5 16.5v172l-79 -87q-6 -6 -11 -6z" />
    </font>
</defs>
</svg>
